<?xml version="1.0" encoding="UTF-8" standalone="no"?>
<svg
   width="900px"
   height="900px"
   viewBox="0 0 900 900"
   version="1.1"
   xml:space="preserve"
   id="SVGRoot"
   inkscape:version="1.4 (86a8ad7, 2024-10-11)"
   sodipodi:docname="oliveritas.svg"
   xmlns:inkscape="http://www.inkscape.org/namespaces/inkscape"
   xmlns:sodipodi="http://sodipodi.sourceforge.net/DTD/sodipodi-0.dtd"
   xmlns="http://www.w3.org/2000/svg"
   xmlns:svg="http://www.w3.org/2000/svg"><defs
   id="defs2" />
<sodipodi:namedview
   pagecolor="#a9a9a9"
   bordercolor="#292929"
   borderopacity="1"
   inkscape:showpageshadow="2"
   inkscape:pageopacity="0.0"
   inkscape:pagecheckerboard="0"
   inkscape:deskcolor="#232323"
   id="namedview1"
   inkscape:zoom="0.90333333"
   inkscape:cx="450.55351"
   inkscape:cy="283.94834"
   inkscape:window-width="1920"
   inkscape:window-height="1094"
   inkscape:window-x="-11"
   inkscape:window-y="-11"
   inkscape:window-maximized="1"
   inkscape:current-layer="SVGRoot" />
<style
   type="text/css"
   id="style1">
g.prefab path {
  vector-effect:non-scaling-stroke;
  -inkscape-stroke:hairline;
  fill: none;
  fill-opacity: 1;
  stroke-opacity: 1;
  stroke: #00349c;
}
</style>

<g
   id="g8"
   inkscape:label="g1"
   style="display:inline"
   transform="matrix(3.004297,0,0,2.9922634,-199.31343,-484.26802)"><path
     style="fill:#80e0df;fill-opacity:1;stroke-width:0.223533"
     d="m 209.83378,445.04189 c -8.93401,-0.51153 -14.57315,-1.26775 -22.68857,-3.04257 -2.5555,-0.55889 -9.61948,-2.57004 -12.18254,-3.46844 -0.73766,-0.25856 -2.58105,-0.86743 -4.09642,-1.35305 -2.55353,-0.81829 -2.73354,-0.91245 -2.45886,-1.2862 0.163,-0.22181 0.74391,-1.04352 1.2909,-1.82603 1.31384,-1.87954 2.47131,-3.11597 4.37061,-4.66877 2.11781,-1.73145 4.24782,-3.0828 5.30987,-3.36878 1.58849,-0.42774 9.88182,-4.34642 11.50889,-5.43807 3.73505,-2.50594 6.95311,-6.63386 9.54504,-12.24376 1.91611,-4.14717 3.23161,-12.52555 2.97426,-18.94302 -0.14429,-3.59837 -0.39408,-4.25741 -1.16668,-3.07827 -0.52252,0.79745 -1.16423,3.58691 -1.79803,7.81577 -1.13865,7.59744 -2.08883,11.25203 -3.90669,15.02603 -1.2805,2.65841 -2.69501,4.57685 -4.95252,6.71691 -2.1258,2.0152 -4.27012,3.34309 -8.51945,5.27574 -5.71088,2.59738 -8.68861,4.18646 -10.33188,5.51364 -2.24808,1.81566 -4.56558,4.06048 -5.71601,5.53675 -0.54688,0.70178 -1.24817,1.57183 -1.55841,1.93343 l -0.56407,0.65748 -3.12422,-1.43822 c -1.71832,-0.79103 -3.70803,-1.73462 -4.42158,-2.09688 l -1.29737,-0.65864 1.63267,-0.6385 c 0.89796,-0.35118 2.7476,-1.01343 4.1103,-1.47166 2.90461,-0.97673 3.51238,-1.27093 3.30817,-1.60134 -0.18141,-0.29352 -3.26212,-0.11632 -4.90528,0.28215 -0.60723,0.14726 -2.02939,0.65644 -3.16034,1.13153 -2.84242,1.19403 -3.47385,1.16414 -6.00028,-0.28395 -1.10133,-0.63127 -2.59158,-1.54764 -3.31168,-2.0364 l -1.30927,-0.88864 1.18987,-1.20484 c 0.65442,-0.66266 1.26075,-1.20483 1.34739,-1.20483 0.0866,0 0.22321,0.29905 0.30348,0.66456 0.18491,0.84187 1.23215,1.73237 2.26523,1.92618 1.08496,0.20353 3.01676,-0.0191 3.83438,-0.44191 1.11792,-0.5781 1.98505,-1.61226 2.25682,-2.69153 0.43694,-1.73526 1.55571,-2.1263 7.73926,-2.70509 3.72543,-0.3487 5.92753,-0.7054 7.93541,-1.28539 0.73716,-0.21294 1.02426,-0.41706 1.07463,-0.76403 0.0999,-0.68826 -0.796,-0.83462 -4.89214,-0.79919 -4.33348,0.0375 -7.48742,0.36278 -10.37682,1.07024 l -2.23533,0.54732 -1.31681,-0.6665 c -2.21981,-1.12356 -3.84086,-0.81868 -5.83623,1.09762 -0.61472,0.59036 -1.46973,1.3051 -1.90003,1.58832 -0.4303,0.28322 -1.44298,1.15786 -2.2504,1.94363 l -1.46804,1.42869 -1.84102,-1.03532 c -1.01257,-0.56943 -1.80611,-1.15204 -1.76344,-1.29471 0.0934,-0.31207 5.05367,-2.90013 6.317,-3.29591 1.08826,-0.34094 4.92897,-2.27807 5.69749,-2.87364 l 0.55623,-0.43106 -0.56863,-0.2162 c -0.33324,-0.12669 -0.93366,-0.13982 -1.45037,-0.0317 -1.40846,0.29471 -5.49049,1.6682 -6.50633,2.1892 -0.51172,0.26245 -1.60747,0.73203 -2.43499,1.04351 -0.82752,0.31148 -1.99914,0.92163 -2.60359,1.35588 l -1.09901,0.78956 -1.13557,-0.83358 c -0.97788,-0.71783 -1.0769,-0.85661 -0.71312,-0.99941 0.23235,-0.0912 0.63901,-0.17291 0.90369,-0.18155 0.54037,-0.0176 4.53702,-1.31856 4.88355,-1.58961 0.44734,-0.34989 8.31295,-2.88017 9.83544,-3.16394 1.16716,-0.21754 3.94947,-0.27562 10.95057,-0.22855 10.03984,0.0675 11.68327,-0.0463 14.16759,-0.98061 0.78303,-0.2945 1.69264,-0.53545 2.02136,-0.53545 0.92476,0 5.80307,-2.51323 7.802,-4.01946 4.80925,-3.62388 8.07865,-9.12155 9.64006,-16.21025 0.75752,-3.43913 1.71371,-6.13377 3.27734,-9.23593 1.67151,-3.31619 1.96551,-4.65909 1.83992,-8.40424 -0.0612,-1.82414 -0.18517,-2.65468 -0.47003,-3.14837 -0.82404,-1.42815 -1.95054,-4.845 -2.42077,-7.34261 -0.27051,-1.43675 -0.43192,-2.67219 -0.35871,-2.74541 0.18195,-0.18194 7.10586,3.2053 9.46571,4.63072 3.9819,2.40518 7.80106,5.57295 11.66105,9.67217 5.8231,6.184 10.69511,14.28471 13.58892,22.59435 0.42533,1.22134 0.88318,2.35297 1.01743,2.51474 0.28639,0.34507 1.38491,0.3878 1.9666,0.0765 0.6414,-0.34327 0.73284,-1.2202 0.26254,-2.51796 -3.35095,-9.24691 -6.90825,-16.06684 -10.82178,-20.74719 -4.3952,-5.2564 -11.44836,-11.54097 -15.91836,-14.18372 -2.49173,-1.47315 -7.41414,-4.01632 -9.72368,-5.02374 -1.98305,-0.86501 -2.30104,-1.10103 -4.80595,-3.56717 -1.47532,-1.45248 -3.23564,-3.0818 -3.91182,-3.62071 -1.57534,-1.25553 -5.83848,-3.3598 -8.52641,-4.2086 -1.15027,-0.36323 -3.56394,-1.11898 -5.36371,-1.67943 -3.15985,-0.98399 -3.31126,-1.05922 -4.40561,-2.18863 -0.62332,-0.64329 -1.85277,-2.07493 -2.7321,-3.18141 -2.17956,-2.74256 -2.86976,-3.44256 -3.7843,-3.83797 -1.2955,-0.56013 -5.64213,-0.68951 -19.14182,-0.56978 l -12.80608,0.11358 -3.27026,2.7206 -3.27026,2.7206 -7.52384,0.28808 c -4.1381,0.15845 -7.82284,0.30272 -8.18829,0.32062 -0.46233,0.0226 -0.68756,-0.0826 -0.74042,-0.34591 -0.10732,-0.53471 0.43159,-0.58521 7.72825,-0.72409 3.94723,-0.0751 6.49639,-0.21294 6.7838,-0.36676 0.25323,-0.13552 2.78555,-2.50086 5.62738,-5.25629 l 5.16697,-5.00989 h 12.96666 12.96665 l 1.29504,-1.28152 1.29504,-1.28153 -17.00017,-17.00126 -17.00017,-17.00126 0.5389,-1.22044 c 0.76066,-1.72266 0.89652,-2.80768 0.51095,-4.08057 -0.84924,-2.80356 -3.559,-4.39744 -6.30189,-3.70677 -1.48636,0.37427 -3.2374,2.09705 -3.65554,3.59655 -0.55494,1.99005 0.10922,4.12445 1.74256,5.60007 0.82237,0.74297 1.34667,0.96473 3.27008,1.38314 0.50409,0.10966 4.52795,4.0142 16.20612,15.72559 l 15.53552,15.57971 -4.35889,0.0674 -4.35888,0.0674 -16.98849,-17.06062 c -9.34367,-9.38335 -17.83953,-18.01411 -18.8797,-19.17946 -1.1003,-1.23272 -2.12861,-2.17789 -2.45886,-2.26004 -0.31221,-0.0777 -4.15429,-0.1531 -8.53797,-0.16765 l -7.970335,-0.0264 -0.80686,-1.1231 c -1.42128,-1.97831 -3.44434,-2.73186 -5.707129,-2.1258 -0.670469,0.17958 -1.245337,0.3002 -1.277484,0.26806 -0.05755,-0.0576 2.274454,-9.32209 2.977318,-11.8282 l 0.360478,-1.28532 h 13.592852 c 7.47607,0 13.64537,-0.085 13.70957,-0.18886 0.0642,-0.10387 -1.79472,-0.85829 -4.13093,-1.67649 l -4.24765,-1.48764 h -8.94041 c -8.552898,0 -8.93104,-0.0175 -8.724233,-0.40393 0.118897,-0.22216 0.733128,-1.79177 1.364948,-3.48801 1.14031,-3.06134 5.00114,-11.44615 6.750875,-14.66127 3.41499,-6.27503 7.75361,-13.05677 10.84839,-16.95723 1.48223,-1.86811 6.25226,-7.56318 7.13628,-8.5202 0.26383,-0.28562 0.78546,0.14993 3.87867,3.2386 l 3.57383,3.5686 v 6.29914 c 0,3.46453 -0.0587,6.45216 -0.13048,6.63918 -0.10104,0.2633 -0.28509,0.16395 -0.81555,-0.4402 -0.86357,-0.98356 -1.56219,-1.34508 -2.96873,-1.53623 -2.65825,-0.36128 -3.25547,-0.94155 -2.67177,-2.59594 0.9753,-2.7643 -0.31443,-5.30587 -3.06594,-6.04179 -0.83389,-0.22303 -1.22927,-0.2213 -2.00775,0.009 -4.6108,1.36276 -4.27555,7.54884 0.46241,8.53244 0.90381,0.18763 1.44033,0.4615 1.99949,1.02067 0.75533,0.75533 0.7625,0.78114 0.61551,2.2159 -0.20181,1.96973 0.10054,2.90045 1.4249,4.38635 l 1.12253,1.25946 v 3.59658 3.59659 h 3.01769 3.01769 v 4.58242 4.58242 h -1.94242 -1.94242 l -3.67627,-3.65753 -3.67627,-3.65753 0.2972,-1.4952 c 0.52696,-2.65114 -0.3773,-4.58583 -2.70652,-5.7907 -1.06469,-0.55075 -1.41832,-0.62084 -2.80593,-0.55615 -1.98002,0.0923 -3.07872,0.7697 -4.02392,2.48091 -2.17564,3.93885 1.26977,8.77326 5.52505,7.75244 l 1.14284,-0.27417 3.83309,3.82839 3.83309,3.8284 2.00946,0.0126 c 2.64414,0.0166 3.49381,0.3105 3.84099,1.32858 0.14674,0.4303 0.27248,1.46135 0.27942,2.29121 l 0.0126,1.50885 h -7.49393 c -6.92091,0 -7.59119,-0.0342 -8.76591,-0.44707 -2.56348,-0.90099 -4.86357,-0.42675 -6.34943,1.30914 -2.97794,3.47905 -0.55703,8.53446 4.08199,8.52412 1.83827,-0.004 4.27668,-1.60254 4.87808,-3.19771 0.13048,-0.34609 0.23724,-1.08096 0.23724,-1.63303 v -1.00376 l 6.55465,0.0683 c 5.88891,0.0614 6.59434,0.10803 6.94548,0.45948 0.34191,0.34222 0.87168,0.39118 4.23248,0.39118 h 3.84165 l 5.58497,5.58832 5.58496,5.58832 9.61358,-0.0133 c 11.63134,-0.0161 12.45838,-0.10946 12.06242,-1.36126 -0.0914,-0.289 -2.23178,-2.61268 -4.75638,-5.16375 l -4.59016,-4.63831 h 4.26009 4.2601 l 5.23463,5.32867 5.23463,5.32867 2.78367,0.1421 c 1.53102,0.0781 3.33692,0.29439 4.0131,0.48053 2.38593,0.65678 3.87702,0.32745 5.39878,-1.19241 2.88849,-2.8849 1.93779,-7.30797 -1.8587,-8.64745 -1.17075,-0.41306 -2.09225,-0.4078 -3.34513,0.0191 -2.34256,0.79819 -3.54794,2.56675 -3.54794,5.20559 0,1.28565 -0.0675,1.60592 -0.3387,1.60592 -0.37739,0 -5.01226,-4.42218 -7.08708,-6.76186 l -1.33804,-1.50885 h 18.01741 18.0174 v 4.91236 4.91236 l 3.60475,3.69365 3.60475,3.69365 h 3.38711 3.3871 l 1.35905,-1.39708 c 0.74748,-0.76839 2.32886,-2.49416 3.51418,-3.83503 l 2.15514,-2.43796 v -4.77097 -4.77098 l 18.05026,0.006 18.05027,0.005 -3.60296,3.55937 c -3.26269,3.22322 -4.49994,4.16029 -4.92791,3.73232 -0.0702,-0.0702 -0.17822,-0.577 -0.24014,-1.12632 -0.17665,-1.56729 -1.35722,-3.48458 -2.63315,-4.27635 -0.9377,-0.58188 -1.29218,-0.6706 -2.67953,-0.6706 -1.38958,0 -1.74207,0.0885 -2.69298,0.67651 -2.28135,1.41058 -3.08833,3.9804 -2.05402,6.54108 l 0.55832,1.38225 -3.24083,3.15787 -3.24083,3.15787 -2.37852,-2.37116 -2.37853,-2.37115 -8.37898,8.38121 c -4.60843,4.60967 -8.42977,8.37709 -8.49186,8.37204 -0.0621,-0.005 -4.13647,-3.99159 -9.05419,-8.85899 -4.91772,-4.86739 -9.27551,-9.10553 -9.68397,-9.41807 l -0.74266,-0.56825 -3.72699,3.72698 -3.72699,3.72699 7.87853,7.88087 7.87852,7.88086 -0.0133,15.7579 c -0.007,8.66683 -0.0932,16.24384 -0.19084,16.83778 -0.24502,1.49051 -0.98144,2.19053 -2.45319,2.33194 -1.72212,0.16548 -4.43928,-0.76735 -6.87303,-2.35959 -1.08985,-0.71301 -2.58875,-1.6632 -3.33089,-2.11152 -1.24625,-0.75285 -2.12979,-1.61433 -5.13311,-5.005 -1.48303,-1.6743 -4.81316,-4.24771 -6.48245,-5.0094 -2.36304,-1.07824 -10.37382,-3.29782 -10.84695,-3.00541 -0.60882,0.37627 -0.0568,1.43117 1.72659,3.29981 l 1.14164,1.19619 2.19232,0.28683 c 2.90432,0.37998 4.75331,0.97556 6.05683,1.95099 1.45515,1.0889 4.53553,4.13834 4.53553,4.48998 0,0.41899 -0.50039,0.36465 -4.68636,-0.50894 -3.72089,-0.77652 -6.40776,-0.96074 -6.35681,-0.43583 0.084,0.86496 6.05372,3.01057 12.39381,4.4545 3.40384,0.77521 5.64695,1.94335 10.23088,5.32795 0.95132,0.70242 1.00232,0.7127 3.96364,0.79924 l 2.99992,0.0877 9.67186,9.75827 c 12.42317,12.53416 17.44975,17.99456 18.07233,19.63209 0.10943,0.28783 0.30861,0.64639 0.44261,0.79682 0.77941,0.87491 2.90878,4.9965 3.66361,7.09124 0.33227,0.92207 0.95149,3.12536 1.37605,4.89619 0.70903,2.95737 1.59002,5.67349 2.10961,6.50398 0.11538,0.18441 0.45302,0.79173 0.75031,1.3496 0.8067,1.51376 3.29072,4.51414 5.82253,7.03287 l 2.24693,2.23533 4.69419,1.84453 c 2.5818,1.01448 5.44861,2.10447 6.37068,2.4222 l 1.6765,0.57767 7.56005,-0.27357 c 9.96501,-0.36059 13.61185,-0.11883 17.02943,1.12896 6.97822,2.54781 10.19693,3.64631 10.95222,3.73781 1.19921,0.14529 1.39616,0.39006 0.68748,0.8544 -0.93081,0.60989 -2.30827,0.30595 -6.97304,-1.53862 -6.61689,-2.61649 -8.69113,-3.11437 -8.69113,-2.08615 0,0.28745 0.33081,0.52706 1.11766,0.80951 1.50579,0.54053 6.69629,2.93596 9.10513,4.20203 1.58862,0.83498 1.90417,1.08375 1.69473,1.3361 -0.28858,0.34772 -3.12485,2.07359 -3.40771,2.07359 -0.10008,0 -0.99953,-0.78209 -1.99879,-1.73797 -5.17569,-4.95104 -6.45284,-5.51551 -9.20435,-4.06813 l -1.28576,0.67635 -1.26992,-0.43948 c -2.13553,-0.73905 -4.94299,-1.0033 -10.77745,-1.01444 -5.7709,-0.011 -6.64251,0.12219 -5.51246,0.84248 0.87912,0.56035 4.92493,1.45685 8.29574,1.83823 3.01086,0.34066 6.81179,1.03858 7.89122,1.44898 0.36845,0.14008 0.52888,0.44297 0.64509,1.21788 0.16871,1.12505 1.08281,2.36784 2.14596,2.91762 2.16829,1.12126 4.9073,0.27676 5.99806,-1.84934 l 0.40237,-0.78431 0.5085,0.82278 c 0.27968,0.45253 0.7486,0.98009 1.04205,1.17237 0.29345,0.19228 0.53355,0.44087 0.53355,0.55243 0,0.29257 -3.37539,2.44154 -5.5271,3.51888 l -1.8388,0.92067 -1.70394,-0.67688 c -3.5102,-1.39439 -9.48338,-2.54162 -9.48338,-1.8214 0,0.353 0.53753,0.59235 2.57063,1.14463 0.98354,0.26717 2.64327,0.81927 3.68829,1.22688 1.04501,0.40761 2.08975,0.80625 2.32163,0.88586 0.39709,0.13633 0.39964,0.16902 0.0438,0.56219 -0.50912,0.56257 -7.31902,3.61419 -8.38413,3.75705 -0.83882,0.11251 -0.85691,0.0986 -1.69818,-1.30857 -3.70156,-6.19133 -8.93661,-9.63736 -20.33651,-13.38673 -3.43974,-1.13131 -12.63793,-4.68265 -14.27518,-5.51153 -1.69951,-0.86039 -3.99575,-2.47061 -6.51336,-4.56743 -5.11247,-4.25799 -6.69212,-6.37426 -7.86719,-10.53971 -0.41797,-1.48166 -0.84688,-3.38628 -0.95314,-4.23248 -0.10625,-0.8462 -0.28881,-1.66018 -0.40568,-1.80883 -0.11687,-0.14864 -0.2844,-0.57012 -0.37229,-0.9366 -0.33966,-1.4163 -3.21525,-4.81022 -4.07558,-4.81022 -0.54122,0 -0.27299,2.45627 0.45693,4.18433 0.32296,0.76459 0.93223,2.83229 1.35393,4.59488 0.98814,4.13018 2.36223,7.7486 3.54187,9.32694 1.30739,1.74926 5.98782,6.49356 8.09762,8.20811 0.98354,0.79929 2.3415,1.70888 3.01769,2.02132 0.67618,0.31244 2.63768,1.25258 4.35889,2.08921 1.7212,0.83663 4.38683,1.98795 5.92361,2.5585 1.53679,0.57055 3.59888,1.33482 4.58242,1.69838 0.98355,0.36356 2.64328,0.91346 3.68829,1.22201 5.57162,1.64506 10.51493,4.24772 13.66545,7.19488 1.61252,1.50843 4.27106,5.07686 4.16985,5.59697 -0.0692,0.35552 -2.32037,1.16753 -9.45282,3.40964 -9.26523,2.91257 -16.06828,4.2129 -27.38276,5.23392 -4.64863,0.41949 -15.96376,0.60036 -20.67677,0.33051 z m 9.45143,-0.56885 c 3.24832,-1.3569 3.96935,-5.60104 1.26622,-7.45326 l -0.77045,-0.52792 V 424.8906 413.28934 l -0.6957,-1.39071 c -0.78397,-1.56717 -1.25115,-2.17307 -1.67553,-2.17307 -0.72468,0 -0.82716,1.56794 -0.92412,14.13845 -0.0561,7.27742 -0.18084,12.46195 -0.29977,12.46195 -0.40057,0 -2.06718,1.68997 -2.36267,2.39579 -1.44757,3.45782 2.07444,7.16637 5.46202,5.75129 z m -20.37442,-2.04044 c 0.47521,-0.2455 1.16578,-0.87344 1.53461,-1.3954 0.57914,-0.8196 0.66345,-1.12174 0.61818,-2.21542 -0.20224,-4.88591 -0.23881,-4.54215 0.63605,-5.9775 0.44394,-0.72835 1.2376,-2.12899 1.76368,-3.11254 0.52609,-0.98354 1.03318,-1.88885 1.12688,-2.01179 0.21072,-0.2765 2.56725,-6.8971 4.05012,-11.37873 1.28395,-3.88044 1.57593,-5.1633 2.3452,-10.30395 0.51624,-3.44979 0.5794,-4.64995 0.68528,-13.02084 l 0.11664,-9.22078 -0.9013,-1.19376 c -1.30702,-1.73113 -1.62291,-2.01323 -1.92094,-1.71544 -0.1697,0.16956 -0.29318,3.0415 -0.38747,9.01156 -0.13481,8.536 -0.18124,9.48048 -0.6726,13.6804 -0.34258,2.92831 -2.93284,14.72847 -3.34101,15.22029 -0.11509,0.13867 -0.3991,0.79443 -0.63114,1.45723 -0.23204,0.66281 -0.92109,2.31159 -1.53123,3.66396 -0.61013,1.35237 -1.29181,2.96181 -1.51484,3.57652 -0.22302,0.61472 -0.52659,1.26855 -0.6746,1.45297 -0.14801,0.18441 -0.33549,0.70606 -0.41662,1.15921 -0.30216,1.68756 -2.44856,4.20557 -3.58491,4.20557 -0.54419,0 -1.95756,0.7772 -2.50109,1.37533 -0.78036,0.85876 -1.19969,1.89264 -1.19969,2.95791 0,1.25359 0.30605,2.07955 1.076,2.90388 1.38653,1.48444 3.48508,1.83178 5.3248,0.88132 z m 42.61658,-1.09919 c 0.54136,-0.37609 1.15615,-1.07757 1.44513,-1.64893 1.37097,-2.71057 -0.30093,-5.73408 -3.50989,-6.34739 -0.86325,-0.16498 -1.79975,-0.92815 -1.7976,-1.46487 7.8e-4,-0.19372 -0.77405,-1.88257 -1.72185,-3.75299 -0.94779,-1.87043 -1.67156,-3.45248 -1.60837,-3.51567 0.0632,-0.0632 2.66056,1.14242 5.77193,2.67912 3.11137,1.53671 6.05962,2.88447 6.55166,2.99502 1.22032,0.27419 2.30006,1.36962 2.62523,2.66337 0.52949,2.10669 2.16686,3.37388 4.36258,3.3763 1.968,0.002 3.58919,-1.31611 4.14165,-3.36781 0.67463,-2.50538 -1.71456,-5.33425 -4.51013,-5.34013 -0.32561,-6.9e-4 -1.1681,0.30178 -1.8722,0.67216 l -1.28017,0.67341 -1.8161,-0.97639 c -0.99885,-0.53701 -4.50493,-2.21141 -7.79128,-3.72089 -3.28636,-1.50948 -7.25965,-3.47581 -8.82955,-4.36962 -1.56989,-0.89381 -2.9298,-1.5786 -3.022,-1.52174 -0.3918,0.24157 -0.0973,1.36112 0.97735,3.71557 1.39223,3.05019 3.73605,7.76575 4.05742,8.16315 0.44809,0.55412 1.72709,3.94045 1.72709,4.57272 0,0.34993 -0.16197,0.94945 -0.35995,1.33229 -0.54567,1.05522 -0.32494,2.86443 0.49076,4.02248 1.42892,2.02864 3.99947,2.52862 5.96829,1.16084 z m -57.17441,-5.8714 c 0.49283,-0.22389 1.21787,-0.7736 1.61121,-1.22159 0.65151,-0.74203 0.84879,-1.22463 1.27895,-3.12875 0.12412,-0.54943 0.48432,-0.79049 2.76069,-1.84762 5.76577,-2.67755 8.17319,-4.14773 9.07869,-5.54423 1.16917,-1.80312 0.40271,-2.13579 -1.79908,-0.78084 -1.68891,1.03932 -5.0553,2.66034 -6.44992,3.10583 -0.77671,0.24811 -2.23156,0.90234 -3.51761,1.58183 -0.59298,0.31329 -1.48516,0.24272 -3.02192,-0.23905 -1.60184,-0.50217 -2.40569,-0.42474 -3.79292,0.36537 -3.09673,1.76375 -2.62911,6.59319 0.75523,7.79987 1.17023,0.41725 2.03407,0.39191 3.09668,-0.0908 z m 68.51086,-18.35521 c 0.56157,-0.35511 -0.10305,-0.77166 -2.68239,-1.68122 -3.14502,-1.10903 -9.47354,-4.21622 -11.959,-5.87164 -2.31748,-1.54354 -4.23221,-3.43649 -6.02556,-5.95702 -1.78264,-2.50548 -2.61127,-4.065 -4.11563,-7.74588 -2.40793,-5.8917 -4.06209,-9.02364 -6.19001,-11.71997 -2.38506,-3.02216 -7.82163,-8.45767 -10.38096,-10.37892 -2.97183,-2.23091 -4.69419,-2.77748 -4.69419,-1.48964 0,0.89542 1.6558,2.8307 5.94234,6.94536 5.71966,5.49033 7.60941,7.88794 10.14351,12.86955 1.09751,2.15752 2.25524,4.71853 2.57273,5.69114 1.1953,3.66171 3.00542,6.53239 6.23009,9.88036 2.36126,2.45154 4.44301,4.11353 6.35586,5.07426 2.5676,1.28958 6.28343,2.65854 9.73063,3.58488 3.82758,1.02855 4.5334,1.13969 5.07258,0.79874 z m -52.53977,-88.35596 c -0.0166,-11.34623 -0.39653,-16.24943 -1.41098,-18.21115 -1.29052,-2.4956 -9.86652,-9.89809 -11.46722,-9.89809 -0.4621,0 -0.52418,0.10539 -0.52418,0.88987 0,0.79116 0.0682,0.90387 0.61472,1.01606 1.72205,0.3535 2.34301,0.64297 3.38075,1.57599 2.22143,1.99726 3.24748,5.46784 2.7373,9.2588 -0.50904,3.78247 -2.40173,5.48538 -5.45345,4.90663 -4.3692,-0.8286 -6.33869,-3.70986 -6.15955,-9.01109 0.0756,-2.23716 0.14933,-2.60771 0.72841,-3.66078 0.36613,-0.66581 1.30496,-1.75882 2.17453,-2.53165 l 1.53023,-1.35998 v -2.01437 -2.01437 l -1.84415,-2.09056 c -1.01428,-1.14981 -2.08859,-2.16239 -2.38735,-2.25018 -0.29877,-0.0878 -4.27206,-0.0634 -8.82954,0.0543 -7.70908,0.19904 -8.35972,0.24702 -9.33978,0.68867 -1.22141,0.55042 -1.51788,1.22225 -1.03956,2.35573 0.73092,1.73207 0.0592,5.98478 -1.42902,9.04696 -0.75709,1.55782 -1.95545,2.96358 -2.52634,2.96358 -1.2653,0 -0.82423,-5.3775 0.79358,-9.67547 0.26769,-0.71115 0.83025,-1.74307 1.25013,-2.29315 0.41989,-0.55008 0.76343,-1.09986 0.76343,-1.22174 0,-0.29349 -2.39203,-0.28704 -2.57372,0.007 -0.0777,0.12569 -0.72479,0.52311 -1.43803,0.88314 -1.47092,0.74253 -1.65042,1.03739 -1.44903,2.38034 0.0788,0.52554 0.0197,3.27136 -0.13138,6.10181 l -0.27467,5.14628 0.73581,1.14665 c 1.38392,2.15666 7.00342,7.8478 9.9331,10.05972 1.06795,0.80632 1.41789,0.92016 5.1572,1.67774 2.20633,0.447 4.3884,1.00492 4.84905,1.23982 2.25627,1.15059 5.2912,0.45788 4.70506,-1.07391 -0.0857,-0.22405 -1.23173,-1.61445 -2.54666,-3.08976 -1.31493,-1.47532 -3.23415,-3.73859 -4.26494,-5.02949 -1.77774,-2.22633 -1.92497,-2.35392 -2.86142,-2.47975 -0.80088,-0.10761 -1.14911,-0.31505 -1.84472,-1.0989 -2.31123,-2.60444 -4.30195,-9.48806 -3.88014,-13.41699 0.24571,-2.28868 0.37637,-2.33883 1.90714,-0.73202 2.72586,2.86124 4.05506,5.94901 4.56549,10.60569 0.37861,3.45412 0.38791,3.47112 3.86589,7.06609 3.07683,3.18031 3.49033,3.26125 3.71145,0.72648 l 0.0683,-0.78237 0.42249,1.0059 c 0.23237,0.55324 1.23775,2.61533 2.23419,4.58242 0.99643,1.96709 2.17664,4.40196 2.62268,5.41083 0.6855,1.5505 0.97589,1.94822 1.87685,2.57062 0.58623,0.40498 1.87798,1.34405 2.87054,2.08683 5.53431,4.14153 7.08838,5.02018 8.87924,5.02018 h 1.30791 z"
     id="path716" /><path
     style="fill:#80e0df;fill-opacity:1;stroke-width:0.111766"
     d="m 85.381932,317.07888 v -6.04301 h 10.109193 10.109205 l 0.46736,0.89832 c 0.64755,1.24468 1.28221,1.91649 2.26305,2.39552 2.44651,1.19484 5.54585,0.42876 6.9851,-1.72653 1.39025,-2.08191 1.13686,-4.77134 -0.62343,-6.61682 -1.23248,-1.29213 -2.46918,-1.81833 -4.10716,-1.74757 -0.83901,0.0362 -1.13057,0.10183 -1.75734,0.39531 -0.86672,0.40583 -1.69518,1.13711 -2.38896,2.10871 l -0.48594,0.68054 -2.8712,0.0739 c -1.57917,0.0406 -6.182515,0.0739 -10.229665,0.0739 h -7.358447 l 2.72e-4,-0.30735 c 1.49e-4,-0.16905 0.04903,-0.9612 0.108627,-1.76032 0.0596,-0.79913 0.186132,-2.86122 0.28119,-4.58243 0.09506,-1.7212 0.219171,-3.75814 0.275805,-4.52653 0.05663,-0.7684 0.136805,-2.16314 0.178158,-3.09944 l 0.07519,-1.70235 0.574219,0.4845 c 1.185627,1.00037 2.247878,1.41136 3.647795,1.41136 1.971919,0 3.418131,-0.84232 4.541921,-2.64537 l 0.5107,-0.81939 h 7.393835 7.39382 l 2.62622,2.65446 c 1.44442,1.45994 3.15315,3.19512 3.79718,3.85593 l 1.17097,1.20149 -7.93341,-0.004 -7.93342,-0.004 -0.44706,-0.73052 c -0.24589,-0.40179 -0.68757,-0.95676 -0.98153,-1.23328 -1.992685,-1.87448 -5.477025,-1.55207 -7.572165,0.70065 -0.952176,1.0238 -1.337631,1.97278 -1.337631,3.29322 0,1.95393 1.172281,3.73117 3.060191,4.63941 1.01,0.48589 1.80396,0.63996 2.96975,0.57628 1.88843,-0.10315 3.117155,-0.91644 3.907615,-2.58645 0.23617,-0.49896 0.45912,-0.99521 0.49544,-1.10278 0.0622,-0.18427 0.62758,-0.1956 9.76571,-0.1956 h 9.69968 l 5.29175,5.29264 c 3.85938,3.86002 5.24399,5.31096 5.11529,5.36035 -0.097,0.0372 -2.98148,0.10201 -6.40985,0.14394 l -6.2334,0.0762 -0.50295,0.44763 c -0.47067,0.41891 -2.36328,2.249 -5.36478,5.18756 l -1.28532,1.25837 -3.35299,0.11324 c -1.84414,0.0623 -6.49642,0.18861 -10.338395,0.28074 -3.84196,0.0921 -7.404848,0.22027 -7.917517,0.28476 -1.919721,0.24148 -3.15423,0.93737 -4.497861,2.53541 l -0.884812,1.05235 z"
     id="path717" /><path
     style="fill:#80e0df;fill-opacity:1;stroke-width:0.111766"
     d="m 88.925736,290.91618 c -0.877971,-0.69061 -0.531101,-2.43127 0.742419,-3.72559 0.678211,-0.68929 1.189287,-0.95209 2.102694,-1.0812 0.368144,-0.052 0.795331,-0.17715 0.949304,-0.27804 0.457412,-0.29971 0.847052,0.0459 0.436182,0.38688 -0.0886,0.0735 -0.29803,0.72091 -0.465505,1.4387 l -0.304493,1.30508 -0.812905,0.79687 c -0.766624,0.7515 -1.759302,1.38258 -2.174783,1.38258 -0.102583,0 -0.315394,-0.10138 -0.472913,-0.22528 z"
     id="path718" /><path
     style="fill:#80e0df;fill-opacity:1;stroke-width:0.111766"
     d="m 96.283815,302.12585 c -1.28129,-0.33163 -1.24808,-2.04932 0.0686,-3.54509 0.71474,-0.81199 1.31898,-1.16884 2.29555,-1.35569 0.47292,-0.0905 0.94209,-0.23894 1.04261,-0.3299 0.360885,-0.3266 0.673035,-0.0473 0.394145,0.35267 -0.0799,0.11463 -0.182615,0.48504 -0.228165,0.82313 -0.18396,1.36522 -1.41586,3.34936 -2.38773,3.84574 -0.37143,0.18972 -0.89976,0.28296 -1.18496,0.20914 z"
     id="path719" /><path
     style="fill:#80e0df;fill-opacity:1;stroke-width:0.111766"
     d="m 108.93846,312.05094 c -0.33316,-0.29768 -0.365,-0.38301 -0.365,-0.97796 0,-0.85478 0.43634,-1.75391 1.24228,-2.55985 0.7326,-0.7326 1.08984,-0.92522 1.98038,-1.0678 0.37904,-0.0607 0.84943,-0.20452 1.04531,-0.31963 0.30836,-0.1812 0.37418,-0.18757 0.49043,-0.0475 0.10657,0.1284 0.0942,0.20605 -0.0597,0.3762 -0.13123,0.14501 -0.2373,0.57633 -0.32773,1.33269 -0.1202,1.0053 -0.1768,1.18086 -0.5602,1.73754 -1.12646,1.63557 -2.59526,2.28618 -3.44572,1.5263 z"
     id="path720" /><path
     style="fill:#80e0df;fill-opacity:1;stroke-width:0.111766"
     d="m 90.978647,350.71812 c -0.23708,-0.14653 -0.08556,-2.2697 0.261486,-3.66401 0.300147,-1.2059 1.040272,-3.48883 1.628432,-5.02296 0.57887,-1.50987 1.64722,-3.07439 4.16869,-6.10476 1.78166,-2.14123 3.099145,-3.39373 4.251105,-4.04144 0.8456,-0.47545 1.03614,-0.63886 1.3412,-1.1503 0.28774,-0.48239 0.4816,-0.65921 1.01609,-0.92673 0.36328,-0.18183 0.74345,-0.3306 0.84482,-0.3306 0.10138,0 0.2768,-0.0676 0.38982,-0.15026 0.27596,-0.20179 0.16462,-0.62282 -0.2831,-1.07054 -0.54223,-0.54223 -0.98233,-0.45943 -1.87139,0.35209 -0.69225,0.63186 -1.72599,1.07341 -3.232815,1.38086 -3.43115,0.70008 -8.101855,0.58248 -12.021107,-0.30269 l -1.095396,-0.2474 0.64833,-0.65763 c 0.369294,-0.37459 1.009106,-0.85501 1.486578,-1.11623 0.461036,-0.25223 1.168055,-0.65187 1.571154,-0.88809 1.680503,-0.98477 3.763241,-1.52029 6.308371,-1.62203 2.74127,-0.10957 4.828955,0.26644 6.761875,1.21789 l 1.17354,0.57766 3.02359,0.0472 c 3.24875,0.0507 4.55466,-0.0518 5.58854,-0.43863 1.07862,-0.40356 1.44623,-1.188 0.918,-1.9589 -0.39684,-0.57916 -0.63338,-0.6389 -2.72498,-0.68813 l -1.91263,-0.045 -0.82565,0.36246 c -0.74451,0.32684 -0.9378,0.36359 -1.96703,0.37401 -0.9464,0.01 -1.1747,-0.0217 -1.3364,-0.18323 -0.26575,-0.26544 -0.0787,-0.43381 0.5401,-0.48631 2.37287,-0.20127 3.46332,-0.32719 5.34656,-0.61741 l 2.17945,-0.33587 2.40297,-2.36857 c 1.32164,-1.30271 3.00652,-2.95425 3.74418,-3.67009 l 1.34119,-1.30152 1.50885,-0.0654 c 0.82986,-0.036 4.26675,-0.1252 7.63753,-0.1983 l 6.12869,-0.13293 3.98617,4.01036 c 2.19239,2.20569 4.41124,4.4532 4.93078,4.99446 l 0.94462,0.98411 -3.79466,-0.0295 -3.79466,-0.0295 -0.12457,-1.64024 c -0.14603,-1.92295 -0.27679,-2.24733 -1.06397,-2.63954 -0.38314,-0.19089 -0.83845,-0.2829 -1.78639,-0.36101 -1.66847,-0.13749 -6.57593,-0.14836 -6.92389,-0.0153 -0.42533,0.16259 -0.60467,0.43513 -1.11493,1.69433 -0.26156,0.64545 -0.81143,1.88616 -1.22194,2.75714 l -0.74639,1.58359 -0.49436,-0.74455 c -0.862,-1.29827 -2.08992,-2.00228 -3.67969,-2.10969 -2.05308,-0.13871 -4.17721,0.953 -5.17763,2.66108 -0.50686,0.86539 -0.77828,2.18309 -0.72026,3.49677 0.0648,1.46828 0.33839,2.19158 1.1675,3.08711 2.03036,2.19304 5.63867,2.02839 7.99905,-0.36501 0.65615,-0.66532 0.87198,-0.99467 1.4839,-2.26437 0.47937,-0.99466 0.90586,-1.7019 1.29018,-2.13949 0.70498,-0.8027 1.90195,-2.39119 2.6191,-3.47578 l 0.53579,-0.81031 1.63216,0.009 c 1.96654,0.0114 2.86262,0.11136 3.09684,0.34558 0.15898,0.15897 0.15462,0.21507 -0.0473,0.60859 -0.47915,0.93386 -3.56053,4.37525 -7.27587,8.12593 l -2.85929,2.8865 -3.85373,-0.0787 -3.85372,-0.0787 -1.93589,-1.18717 c -1.06474,-0.65294 -2.4237,-1.55148 -3.01991,-1.99676 -0.59621,-0.44528 -1.15222,-0.80992 -1.23558,-0.81031 -0.0834,-3.9e-4 -0.34572,0.15307 -0.58302,0.34101 -0.87072,0.68963 -1.58707,0.51155 -3.68382,-0.91576 -0.58198,-0.39617 -1.2227,-0.7877 -1.42383,-0.87007 -0.3406,-0.13949 -0.40189,-0.12738 -0.89344,0.17652 -0.29026,0.17946 -0.54543,0.4181 -0.56704,0.5303 -0.0216,0.11221 0.12896,0.56291 0.3346,1.00155 0.36072,0.76942 0.37367,0.84479 0.36742,2.13872 -0.006,1.21087 -0.0417,1.44379 -0.36844,2.39693 -1.49205,4.35182 -5.468365,9.18935 -10.505155,12.78043 -1.462654,1.04283 -2.378874,1.54905 -2.579378,1.42514 z"
     id="path721" /><path
     style="fill:#80e0df;fill-opacity:1;stroke-width:0.111766"
     d="m 118.519,331.46676 c -0.26907,-0.31978 -0.29634,-0.42929 -0.25748,-1.03384 0.0257,-0.40036 0.14932,-0.8944 0.30295,-1.21112 0.57648,-1.18851 1.98997,-2.31511 2.90466,-2.31511 0.21441,0 0.61215,-0.10762 0.88387,-0.23916 0.61063,-0.2956 0.803,-0.13166 0.4735,0.40351 -0.12512,0.20321 -0.23933,0.67378 -0.28564,1.17685 -0.0857,0.93118 -0.14932,1.06315 -1.04639,2.17113 -0.80028,0.98843 -1.43742,1.40539 -2.14751,1.40539 -0.45568,0 -0.56774,-0.0484 -0.82796,-0.35765 z"
     id="path722" /><path
     style="fill:#80e0df;fill-opacity:1;stroke-width:0.111766"
     d="m 101.21223,355.55834 c -0.30585,-0.0892 -0.17013,-0.78254 0.36877,-1.884 0.59134,-1.20866 1.37258,-2.2211 2.84868,-3.69175 3.48393,-3.47107 8.54913,-6.65022 12.17632,-7.64241 1.64318,-0.44948 4.0445,-0.83686 4.49174,-0.72461 0.43893,0.11017 0.33954,0.53334 -0.39386,1.67689 -0.36676,0.57186 -0.87485,1.45347 -1.12909,1.95913 -0.60532,1.20392 -1.16823,1.95591 -2.33336,3.11707 -2.64105,2.63207 -6.83857,5.32582 -9.99842,6.41645 -1.45793,0.50321 -5.27731,0.9929 -6.03078,0.77323 z"
     id="path723" /><path
     style="fill:#80e0df;fill-opacity:1;stroke-width:0.111766"
     d="m 100.87054,370.75803 c -0.20077,-0.52319 0.68197,-2.4216 2.14581,-4.61472 1.01484,-1.52045 1.49807,-2.12144 2.92599,-3.63903 3.6632,-3.89326 8.79563,-7.58526 10.56027,-7.59651 0.55675,-0.004 0.56561,0.002 0.60012,0.35979 0.0889,0.92216 -1.9445,3.93262 -4.36987,6.4696 -1.83841,1.923 -3.83038,3.57905 -7.99188,6.6441 -3.88699,2.86288 -3.72264,2.76195 -3.87044,2.37677 z"
     id="path724" /><path
     style="fill:#80e0df;fill-opacity:1;stroke-width:0.111766"
     d="m 120.29296,359.26175 c -0.0797,-0.20766 0.43201,-2.49211 0.81224,-3.62621 0.82921,-2.47327 2.89364,-5.96903 5.28319,-8.9462 2.13709,-2.66264 3.53434,-3.99431 5.60012,-5.33727 0.70692,-0.45957 1.39828,-0.93897 1.53635,-1.06534 0.13806,-0.12636 0.28437,-0.1964 0.32512,-0.15565 0.1078,0.1078 -0.60056,3.28262 -1.04664,4.69101 -1.14831,3.62543 -4.31617,8.25396 -7.79826,11.39394 -1.38151,1.24577 -4.18807,3.21467 -4.58235,3.21467 -0.0357,0 -0.0941,-0.076 -0.12977,-0.16895 z"
     id="path725" /><path
     style="fill:#80e0df;fill-opacity:1;stroke-width:0.111766"
     d="m 133.77766,353.32061 c 0.003,-0.74042 1.0993,-5.14068 1.73357,-6.95934 1.03128,-2.95708 2.16373,-4.82282 4.29174,-7.07077 1.06661,-1.12674 1.70152,-1.61495 1.92254,-1.47835 0.23327,0.14417 -0.10178,3.39012 -0.52983,5.13301 -0.56237,2.28981 -1.68112,4.83038 -2.84601,6.46301 -0.95489,1.33832 -2.76743,3.02416 -4.15378,3.86342 -0.3883,0.23507 -0.41905,0.23868 -0.41823,0.049 z"
     id="path726" /><path
     style="fill:#80e0df;fill-opacity:1;stroke-width:0.111766"
     d="m 141.48865,356.24936 c 0,-2.97146 1.12882,-6.77292 3.35321,-11.2924 2.4297,-4.93661 4.92219,-8.15037 6.72135,-8.66636 0.43882,-0.12586 0.53251,0.0448 0.67934,1.23728 0.095,0.77192 0.0947,1.4001 -0.001,2.4978 -0.17245,1.97327 -0.3128,2.44998 -0.95249,3.23536 -0.64496,0.79183 -1.39752,2.26396 -1.80971,3.54006 -0.31348,0.97055 -0.41949,2.28843 -0.23417,2.91122 0.1893,0.63619 -1.43385,2.28346 -4.29157,4.35534 -0.82987,0.60165 -1.94893,1.47986 -2.48681,1.95157 l -0.97795,0.85765 z"
     id="path727" /><path
     style="fill:#80e0df;fill-opacity:1;stroke-width:0.111766"
     d="m 136.15976,367.52199 c -0.12086,-0.31497 0.17039,-1.25569 0.84967,-2.74432 1.26777,-2.77829 2.70084,-4.71668 5.69477,-7.7028 3.27764,-3.2691 5.82517,-4.99646 6.60032,-4.47538 0.30676,0.20621 0.28573,1.32026 -0.0435,2.30647 -0.85431,2.55876 -2.95544,5.64899 -5.69827,8.38068 -1.84886,1.84135 -2.89741,2.61541 -4.94707,3.65204 -1.58362,0.80092 -2.30649,0.97261 -2.45588,0.58331 z"
     id="path728" /><path
     style="fill:#80e0df;fill-opacity:1;stroke-width:0.111766"
     d="m 150.27548,348.71638 c -0.17391,-0.19274 -0.19718,-0.33254 -0.13429,-0.80665 0.39129,-2.9497 3.34429,-5.82081 8.71811,-8.47636 1.64301,-0.81191 3.9953,-1.79882 4.11344,-1.7258 0.47909,0.29609 -3.64112,5.51347 -6.49074,8.21916 -1.49296,1.41755 -2.05927,1.80105 -3.51355,2.37932 -1.59403,0.63384 -2.38286,0.75404 -2.69297,0.41033 z"
     id="path729" /><path
     style="fill:#80e0df;fill-opacity:1;stroke-width:0.111766"
     d="m 154.39496,370.37943 c -0.10576,-0.17112 0.15546,-3.20448 0.40152,-4.66247 1.24147,-7.35616 5.32215,-14.22463 11.02308,-18.55374 1.65937,-1.26007 1.71708,-1.28778 1.64763,-0.79112 -0.58474,4.18153 -0.84036,5.54495 -1.44463,7.70552 -1.69874,6.07382 -4.73218,10.70743 -9.90284,15.12669 -1.41711,1.21118 -1.61792,1.348 -1.72476,1.17512 z"
     id="path730" /><path
     style="fill:#80e0df;fill-opacity:1;stroke-width:0.111766"
     d="m 151.58287,423.02623 c -0.82907,-0.33828 -0.5366,-1.65986 0.63696,-2.87815 0.75731,-0.78618 2.18751,-1.48121 3.04798,-1.48121 h 0.3322 l -0.0742,0.55901 c -0.14145,1.06631 -0.50266,1.78776 -1.29052,2.57761 -0.97475,0.97721 -2.04503,1.47059 -2.65246,1.22274 z"
     id="path731" /><path
     style="fill:#80e0df;fill-opacity:1;stroke-width:0.111766"
     d="m 180.97742,433.64256 c -0.87859,-0.35319 -0.39945,-2.25866 0.91085,-3.62237 0.69653,-0.72492 1.24919,-1.01596 2.11495,-1.11379 0.36194,-0.0409 0.80048,-0.15848 0.97452,-0.26129 0.4102,-0.24232 0.53044,-0.11087 0.28251,0.30885 -0.11192,0.18947 -0.2386,0.73905 -0.2939,1.27506 -0.0535,0.51813 -0.14942,1.03963 -0.21324,1.15888 -0.19872,0.37131 -1.63341,1.63219 -2.20473,1.93763 -0.63091,0.3373 -1.2232,0.45683 -1.57096,0.31703 z"
     id="path732" /><path
     style="fill:#80e0df;fill-opacity:1;stroke-width:0.111766"
     d="m 194.79641,441.1827 c -0.61201,-0.65146 -0.12177,-2.36357 1.02353,-3.57456 0.78042,-0.82517 1.18483,-1.05518 2.07754,-1.18161 0.41363,-0.0586 0.86517,-0.18061 1.0034,-0.27119 0.13824,-0.0906 0.32856,-0.16468 0.42293,-0.16468 0.1914,0 0.23412,0.28345 0.059,0.39167 -0.2453,0.1516 -0.48073,0.81326 -0.5688,1.59856 -0.1151,1.02644 -0.42004,1.57406 -1.3401,2.40667 -1.17978,1.06764 -2.15065,1.35596 -2.67752,0.79514 z"
     id="path733" /><path
     style="fill:#80e0df;fill-opacity:1;stroke-width:0.111766"
     d="m 216.01218,442.91307 c -0.31277,-0.18229 -0.46007,-0.93487 -0.30748,-1.57093 0.34194,-1.42534 2.01711,-3.11284 3.09474,-3.1175 0.17102,-7.4e-4 0.52615,-0.12439 0.78918,-0.27477 l 0.47824,-0.27343 -0.0732,0.58213 c -0.22493,1.78997 -0.37864,2.56995 -0.56416,2.86285 -0.27457,0.4335 -1.40105,1.41215 -1.9447,1.68949 -0.46401,0.23673 -1.15907,0.28494 -1.47267,0.10216 z"
     id="path734" /><path
     style="fill:#80e0df;fill-opacity:1;stroke-width:0.111766"
     d="m 237.53269,440.29972 c -0.45358,-0.19901 -0.59557,-0.47327 -0.59557,-1.15031 0,-1.38446 1.62279,-3.19492 3.06384,-3.41816 0.24297,-0.0376 0.63123,-0.22356 0.8736,-0.41834 0.23994,-0.19282 0.46479,-0.32206 0.49967,-0.28718 0.0349,0.0349 0.005,0.68118 -0.0669,1.43624 -0.15734,1.65771 -0.34685,2.10593 -1.21915,2.8834 -1.00706,0.89757 -1.91345,1.23607 -2.5555,0.95435 z"
     id="path735" /><path
     style="fill:#80e0df;fill-opacity:1;stroke-width:0.111766"
     d="m 251.58071,434.62394 c -0.62742,-0.33166 -0.7125,-1.05416 -0.24046,-2.04216 0.70429,-1.47411 1.88589,-2.52626 3.08554,-2.74751 0.36731,-0.0677 0.80386,-0.22002 0.97011,-0.3384 0.16625,-0.11838 0.32945,-0.17127 0.36266,-0.11754 0.0975,0.15783 -0.24036,2.75278 -0.41188,3.1631 -0.20231,0.48398 -1.36442,1.55949 -2.03669,1.88494 -0.64229,0.31092 -1.35978,0.3929 -1.72928,0.19757 z"
     id="path736" /><path
     style="fill:#80e0df;fill-opacity:1;stroke-width:0.111766"
     d="m 281.12073,423.67898 c -0.57616,-0.28735 -0.61806,-1.26746 -0.10234,-2.39394 0.67595,-1.47648 1.69038,-2.41133 2.77232,-2.55485 0.32382,-0.043 0.75542,-0.1811 0.95912,-0.30699 0.20369,-0.12589 0.39989,-0.19934 0.43601,-0.16323 0.10708,0.10708 -0.18282,2.42784 -0.37892,3.03341 -0.4277,1.32074 -2.77518,2.83996 -3.68619,2.3856 z"
     id="path737" /><path
     style="fill:#80e0df;fill-opacity:1;stroke-width:0.111766"
     d="m 234.66434,372.77761 c -0.94643,-0.74298 -3.65695,-3.39998 -14.46423,-14.1786 l -9.63985,-9.61429 v -19.84029 -19.8403 l -7.21514,-7.21578 -7.21514,-7.21577 1.45353,-1.36861 c 0.79943,-0.75274 1.49378,-1.36174 1.54299,-1.35335 0.0492,0.008 3.91921,3.80799 8.6,8.44356 l 8.51052,8.42831 0.0652,1.59346 c 0.0358,0.87641 0.085,2.51294 0.1093,3.63674 l 0.0441,2.04327 -0.99493,0.68144 c -1.93459,1.32503 -2.77224,2.75861 -2.77555,4.75014 -0.003,1.91486 0.93004,3.43285 2.81395,4.57726 l 0.64949,0.39454 v 10.97273 10.97272 l 10.06027,10.06073 10.06027,10.06073 -0.37209,2.227 c -0.20464,1.22485 -0.41898,2.2426 -0.4763,2.26167 -0.0573,0.0191 -0.3977,-0.19573 -0.75639,-0.47731 z"
     id="path738" /><path
     style="fill:#80e0df;fill-opacity:1;stroke-width:0.111766"
     d="m 236.98681,364.71685 c -0.4269,-0.3506 -4.53571,-4.38264 -9.13071,-8.96008 l -8.35453,-8.32261 v -10.35962 -10.35961 l 0.65296,-0.40303 c 1.27253,-0.78545 2.24447,-2.00395 2.70692,-3.39364 0.37661,-1.1317 0.27756,-2.12276 -0.33237,-3.32567 -0.58741,-1.1585 -1.33489,-2.00041 -2.28815,-2.57722 l -0.73883,-0.44707 -2.7e-4,-3.46505 -2.6e-4,-3.46506 7.7676,-7.767 7.7676,-7.767 1.25703,1.25703 1.25704,1.25704 -6.23048,6.23122 -6.23048,6.23122 0.002,11.79098 c 0.002,12.58924 0.0804,15.61654 0.44334,17.03547 0.36356,1.4215 0.6561,1.83146 3.07664,4.31153 2.45101,2.51128 3.79914,4.02339 4.88082,5.47448 0.57929,0.77713 0.8022,0.98725 1.23713,1.16613 0.50739,0.20869 0.55631,0.21007 1.12242,0.0316 0.73254,-0.23092 1.61292,-0.81828 3.49345,-2.33075 1.78157,-1.43288 2.55137,-1.96135 3.69568,-2.53714 1.29049,-0.64934 2.04872,-0.87335 4.78777,-1.41451 1.35548,-0.26781 3.24409,-0.71147 4.1969,-0.98592 4.27931,-1.23264 8.03428,-2.90207 7.91169,-3.51749 -0.0889,-0.44625 -5.14133,-0.008 -8.22896,0.71398 -1.25211,0.29273 -1.91898,0.33733 -2.26608,0.15157 -0.26728,-0.14304 -0.212,-0.4069 0.21949,-1.04784 0.39762,-0.59062 4.15979,-3.71453 4.80938,-3.99346 1.07922,-0.46341 2.80715,-0.75342 5.54577,-0.93079 1.75475,-0.11365 1.63235,-0.0539 2.58563,-1.26283 0.47049,-0.59668 1.2254,-1.4441 1.67759,-1.88316 0.87455,-0.84917 1.0075,-1.17876 0.61776,-1.53148 -0.11761,-0.10642 -0.39049,-0.18456 -0.64266,-0.184 -0.62034,0.001 -3.38334,0.57971 -5.33354,1.11639 -6.02059,1.6568 -8.04026,2.90113 -13.09911,8.07049 -2.7459,2.80589 -5.88394,5.41279 -8.22907,6.83624 -1.28419,0.77947 -1.37121,0.77893 -2.28941,-0.0143 -0.42345,-0.36583 -2.11531,-1.98519 -3.75967,-3.59859 l -2.98975,-2.93344 v -13.71055 -13.71055 l 8.07512,-8.05378 c 9.39071,-9.3659 11.47338,-11.38153 12.39839,-11.99922 0.58862,-0.39307 0.75707,-0.45146 1.30572,-0.45261 0.7608,-0.002 1.48687,-0.186 2.52995,-0.64254 0.4303,-0.18833 1.05899,-0.42198 1.39708,-0.51921 0.67727,-0.19478 2.79783,-0.39713 4.19079,-0.39988 l 0.89367,-0.002 5.03186,-5.03095 5.03185,-5.03094 3.92472,0.0294 3.92472,0.0294 -4.25043,4.2977 -4.25043,4.2977 1.27381,1.20268 1.27381,1.20268 9.44468,0.004 9.44468,0.004 5.51956,-5.5204 5.51955,-5.52039 3.25368,-0.055 c 1.78953,-0.0302 3.36941,-0.0925 3.51086,-0.13833 0.16374,-0.0531 0.28077,-0.20132 0.32212,-0.40808 0.0357,-0.17861 0.17147,-0.38583 0.30166,-0.46048 0.17497,-0.10034 1.92733,-0.15032 6.71916,-0.19163 l 6.48245,-0.0559 v -1.3412 -1.34119 l -6.46881,-0.0289 -6.4688,-0.0289 0.0577,-1.53588 c 0.0377,-1.00257 0.12067,-1.71051 0.239,-2.03882 0.29169,-0.80927 0.94335,-1.57562 1.64493,-1.93442 0.54736,-0.27993 0.80417,-0.32995 2.15601,-0.41993 2.90515,-0.19336 4.00077,-0.81873 7.56431,-4.31765 l 1.74207,-1.71047 h 10.05555 10.05556 l 0.90982,2.43091 0.90983,2.43092 -0.29953,0.0811 c -0.16473,0.0446 -3.3432,0.10849 -7.06324,0.14192 -10.6227,0.0955 -9.41916,-4.9e-4 -13.30206,1.06057 -4.7664,1.3025 -5.59399,1.59879 -5.30002,1.89748 0.28051,0.28501 2.43707,0.34646 14.53444,0.41415 l 12.64328,0.0707 0.34422,1.07293 c 0.65173,2.03144 3.26081,12.06079 3.26081,12.53464 0,0.20079 -0.077,0.18164 -0.86703,-0.21556 -1.18479,-0.59571 -1.92539,-0.79599 -2.94335,-0.79599 -1.9216,0 -3.19789,0.75566 -4.47645,2.6504 l -0.54951,0.81435 h -8.5748 -8.57478 l -19.33533,19.33558 -19.33534,19.33558 h -3.82152 c -2.11687,0 -3.84899,-0.0444 -3.8831,-0.0996 -0.14081,-0.22783 13.07928,-13.49102 24.13381,-24.21249 7.21973,-7.00221 7.68891,-7.42952 8.15747,-7.42952 0.54297,0 1.50987,-0.31912 2.09759,-0.6923 2.52218,-1.60144 3.22934,-5.36632 1.44846,-7.7114 -0.65573,-0.86347 -1.67994,-1.57479 -2.7242,-1.89197 -2.29522,-0.69715 -4.84734,0.47901 -5.97029,2.75144 -0.8214,1.66219 -0.75452,2.97586 0.26061,5.11905 l 0.51887,1.09547 -17.14279,17.14307 -17.1428,17.14307 0.98137,1.0691 0.98136,1.0691 h 13.54125 13.54125 l 5.25213,5.25302 5.25212,5.25302 h 8.35499 8.35498 v 0.78302 0.78302 l -0.92208,-0.0593 c -1.75584,-0.11292 -7.53704,-0.27937 -12.22875,-0.35209 l -4.71247,-0.073 -2.0494,-1.90242 c -2.20961,-2.05114 -4.19549,-3.78785 -4.54549,-3.97516 -0.53827,-0.28807 -4.0184,-0.38865 -13.37473,-0.38652 -10.89366,0.002 -17.84002,0.21816 -18.43487,0.57237 -0.0772,0.046 -1.59211,1.71817 -3.36645,3.71599 -3.71989,4.1884 -4.74112,5.23564 -5.43157,5.56988 -0.27305,0.13218 -1.62555,0.58941 -3.00555,1.01608 -5.54566,1.71457 -8.76152,2.89824 -10.55319,3.88433 -4.38655,2.41426 -7.07542,5.08989 -8.38914,8.34787 -0.66269,1.64344 -0.81495,2.41207 -1.22991,6.20865 -0.1668,1.52618 -0.28453,2.02065 -0.48108,2.02065 -0.0473,0 -0.43536,-0.28686 -0.86225,-0.63747 z m 1.52211,-29.5516 c 0.35955,-0.0789 0.75349,-0.31084 1.33532,-0.78623 0.85042,-0.69486 2.52175,-1.87331 5.92242,-4.17588 2.41288,-1.63374 3.0179,-2.09272 3.80006,-2.88282 0.81986,-0.82818 1.21412,-1.50771 2.19969,-3.7913 0.45616,-1.05692 1.24813,-2.72853 1.75996,-3.71471 0.51182,-0.98617 1.17084,-2.42173 1.46448,-3.19012 0.86952,-2.27536 1.03047,-2.31332 0.84691,-0.19971 -0.0614,0.70649 -0.0833,1.3925 -0.0488,1.52448 0.15543,0.59434 0.94273,0.0382 2.83695,-2.00399 2.40671,-2.59471 3.40293,-3.58826 3.80589,-3.79568 0.22924,-0.118 0.4544,-0.34262 0.522,-0.52076 0.0654,-0.17228 0.15027,-1.31282 0.18863,-2.53451 0.1179,-3.75517 0.64398,-5.88122 2.0389,-8.23991 0.92209,-1.55918 2.53048,-3.48465 3.65003,-4.3696 0.53277,-0.42113 0.57093,-0.43386 0.71792,-0.23946 0.24323,0.32168 0.11289,5.18276 -0.18082,6.74364 -0.71629,3.80666 -2.09676,7.25166 -3.53037,8.81018 -0.61057,0.66377 -0.92535,0.80173 -1.82933,0.80173 -0.73975,0 -0.78541,0.0161 -1.18943,0.41912 -0.23107,0.23052 -0.70429,0.79634 -1.05157,1.25737 -0.95217,1.26403 -2.13688,2.66745 -3.82113,4.52654 -2.61569,2.88723 -3.00782,3.45728 -3.01266,4.37956 -0.005,0.94332 0.45041,1.59994 1.10957,1.59994 1.00802,0 3.66807,-0.58382 5.57942,-1.22456 1.08912,-0.3651 3.1249,-0.94434 4.52396,-1.28721 3.60778,-0.88415 3.79633,-0.96978 5.15836,-2.34253 1.51824,-1.53019 6.11699,-6.69591 7.74941,-8.7048 l 0.80072,-0.98539 v -6.4503 -6.45031 l -0.69854,-0.69007 c -0.42629,-0.42113 -0.9599,-0.81191 -1.36914,-1.00267 -0.58633,-0.27331 -0.80402,-0.31258 -1.73238,-0.31251 -0.87143,7e-5 -1.16196,0.0462 -1.62061,0.2572 -0.62753,0.28872 -1.2152,0.80626 -1.48464,1.30745 l -0.18025,0.33529 -0.0832,-0.44706 c -0.0457,-0.24589 -0.0872,-0.79913 -0.0921,-1.22943 -0.0103,-0.90429 -0.21904,-1.44052 -0.83758,-2.1515 l -0.41325,-0.47501 h -8.62624 -8.62624 l -2.31816,2.32013 -2.31815,2.32012 v 1.76574 c 0,0.97116 0.0561,1.98859 0.1247,2.26098 0.14942,0.5934 0.65108,1.0849 1.65161,1.61818 1.35251,0.72088 2.12501,1.63232 2.67232,3.15294 0.27463,0.763 0.29222,0.9338 0.29077,2.82391 -0.001,1.81273 -0.0302,2.11768 -0.29135,3.08182 -0.85191,3.14524 -2.52191,5.50618 -4.63268,6.54937 -0.83831,0.41432 -0.90276,0.42779 -2.04725,0.42779 -1.10912,0 -1.22735,-0.0225 -1.92502,-0.36594 -0.9775,-0.48122 -1.7837,-1.35935 -2.33194,-2.53999 -0.61246,-1.31894 -0.79057,-2.13379 -0.85504,-3.91182 -0.12169,-3.35602 0.79059,-6.03304 2.7147,-7.96603 0.85211,-0.85605 1.6198,-1.29026 3.18788,-1.80306 l 0.73814,-0.24139 0.0715,-0.91838 c 0.14547,-1.86856 0.09,-2.31545 -0.28739,-2.31545 -0.41521,0 -1.24345,0.74937 -4.96317,4.49062 -6.57316,6.61118 -6.7455,6.8519 -7.36555,10.28806 -0.35621,1.974 -0.67322,3.23876 -0.94561,3.77269 -0.33342,0.65357 -0.45312,2.45782 -0.52284,7.88137 -0.0635,4.94262 0.051,8.51432 0.29362,9.15236 0.21306,0.56037 1.86102,0.74595 3.47658,0.39151 z m 90.79047,-52.18002 c 3.02477,-0.49535 5.09369,-3.74686 4.20787,-6.6131 -0.55538,-1.79704 -1.96555,-3.09863 -3.9209,-3.61899 -1.61966,-0.43103 -3.40457,0.0974 -4.69806,1.39089 -2.04309,2.04309 -2.0692,5.32196 -0.0584,7.33276 0.86346,0.86346 2.32324,1.50595 3.64386,1.60378 0.0922,0.007 0.46374,-0.0361 0.82563,-0.0953 z"
     id="path739" /><path
     style="fill:#80e0df;fill-opacity:1;stroke-width:0.111766"
     d="m 215.92504,323.96962 c -0.35281,-0.17628 -0.6702,-0.79932 -0.67042,-1.31605 -2.5e-4,-0.56242 0.48538,-1.46684 1.20493,-2.24404 0.77703,-0.83929 1.3438,-1.1715 2.24515,-1.31601 0.3916,-0.0628 0.82991,-0.19141 0.97403,-0.28584 0.30096,-0.1972 0.6052,-0.22535 0.6052,-0.056 0,0.0636 -0.0775,0.23393 -0.17216,0.37844 -0.0947,0.14451 -0.25194,0.73371 -0.34946,1.30933 -0.21175,1.2499 -0.43693,1.72997 -1.18,2.51565 -0.91173,0.96402 -1.95851,1.36367 -2.65727,1.01452 z"
     id="path740" /><path
     style="fill:#80e0df;fill-opacity:1;stroke-width:0.111766"
     d="m 177.81271,307.71788 c -0.58894,-0.2829 -2.32115,-2.08965 -3.03389,-3.16446 -1.23744,-1.86606 -1.77857,-3.19847 -2.05115,-5.05047 -0.0933,-0.63391 -0.20078,-1.3017 -0.23885,-1.48399 -0.0665,-0.31816 -0.0385,-0.30444 0.69937,0.34306 0.42272,0.37097 1.17659,0.98233 1.67527,1.35858 1.74627,1.31754 2.3005,2.23403 3.28011,5.42397 0.78724,2.56354 0.72102,3.07857 -0.33086,2.57331 z"
     id="path741" /><path
     style="fill:#80e0df;fill-opacity:1;stroke-width:0.111766"
     d="m 183.55226,286.67904 c -0.9376,-0.57172 -0.66812,-2.14272 0.5805,-3.3842 0.67659,-0.67272 1.32549,-0.9738 2.34522,-1.08816 0.44797,-0.0502 0.93086,-0.17285 1.07308,-0.27247 0.6267,-0.43895 0.70554,-0.12798 0.16155,0.63715 -0.21043,0.29598 -0.49199,0.89828 -0.62569,1.33843 -0.39441,1.29852 -1.155,2.26734 -2.19943,2.80158 -0.47134,0.2411 -0.90399,0.23062 -1.33523,-0.0323 z"
     id="path742" /><path
     style="fill:#80e0df;fill-opacity:1;stroke-width:0.111766"
     d="m 142.77396,281.75308 -3.68702,-3.68829 h 6.9854 6.9854 l 3.68702,3.68829 3.68702,3.68829 h -6.9854 -6.9854 z"
     id="path743" /><path
     style="fill:#80e0df;fill-opacity:1;stroke-width:0.111766"
     d="m 125.87661,290.69725 c -0.87949,-0.36745 -0.48734,-2.32232 0.7464,-3.72085 0.54955,-0.62296 1.21726,-1.03935 1.84486,-1.15046 0.52195,-0.0924 0.96262,-0.29806 1.16743,-0.54485 0.15263,-0.18391 0.56495,-0.24261 0.56495,-0.0804 0,0.052 -0.0794,0.25378 -0.17648,0.44834 -0.0971,0.19457 -0.2183,0.79963 -0.26942,1.34459 -0.0511,0.54496 -0.16919,1.13535 -0.26239,1.31198 -0.21482,0.40711 -1.68131,1.83466 -2.19764,2.13926 -0.47613,0.2809 -1.08855,0.38993 -1.41771,0.25241 z"
     id="path744" /><path
     style="fill:#80e0df;fill-opacity:1;stroke-width:0.111766"
     d="m 105.56971,280.04473 c -0.26853,-0.19636 -0.35353,-0.97466 -0.17577,-1.60954 0.2073,-0.74044 1.10452,-2.02633 1.76201,-2.52535 0.42449,-0.32217 0.74527,-0.45849 1.3501,-0.57373 0.43633,-0.0831 0.92457,-0.23716 1.08497,-0.34226 0.42294,-0.27712 0.60689,-0.0609 0.33696,0.3961 -0.12012,0.20333 -0.23493,0.71036 -0.28483,1.25785 -0.046,0.50447 -0.13744,1.01709 -0.20324,1.13916 -0.21439,0.39772 -1.8603,1.91658 -2.34291,2.16205 -0.52766,0.2684 -1.23087,0.31246 -1.52729,0.0957 z"
     id="path745" /><path
     style="fill:#80e0df;fill-opacity:1;stroke-width:0.111766"
     d="m 213.21471,289.35197 -2.43092,-2.66849 v -4.30934 -4.30935 h 2.68239 2.6824 v 6.14715 6.14715 h 1.67649 1.6765 v -6.14715 -6.14715 h 2.79415 2.79416 v 4.34035 4.34035 l -2.58072,2.64505 -2.58073,2.64505 -2.1414,-0.008 -2.1414,-0.008 z"
     id="path746" /><path
     style="fill:#80e0df;fill-opacity:1;stroke-width:0.111766"
     d="m 248.64839,286.69875 c -0.75374,-0.8641 -0.49101,-2.11809 0.72178,-3.44507 0.72057,-0.78842 1.35877,-1.15716 2.3196,-1.34024 0.42344,-0.0807 0.89804,-0.23066 1.05466,-0.33328 0.26725,-0.17512 0.28936,-0.17463 0.35943,0.008 0.0411,0.10701 0.0164,0.28781 -0.0548,0.40178 -0.0712,0.11396 -0.1294,0.60718 -0.1294,1.09604 v 0.88882 l -0.74961,0.84932 c -1.51667,1.71841 -2.97901,2.49683 -3.52171,1.87466 z"
     id="path747" /><path
     style="fill:#80e0df;fill-opacity:1;stroke-width:0.111766"
     d="m 256.68251,309.39663 c -0.22212,-0.22212 0.02,-2.01511 0.45776,-3.39025 0.41576,-1.30596 1.7419,-3.94606 2.70878,-5.39269 0.99216,-1.48446 2.08907,-2.65448 2.48862,-2.65448 0.34655,0 0.41748,0.17106 0.41748,1.00695 0,3.08226 -1.48207,6.60647 -3.74236,8.89895 -1.14293,1.15922 -2.08405,1.77775 -2.33028,1.53152 z"
     id="path748" /><path
     style="fill:#80e0df;fill-opacity:1;stroke-width:0.111766"
     d="m 276.16796,306.71621 c -0.67869,-1.07019 -2.02082,-3.9308 -2.29946,-4.90106 -0.31111,-1.08332 -0.46789,-2.79376 -0.33643,-3.67039 0.22732,-1.51584 1.48828,-1.57933 2.26916,-0.11425 0.75418,1.41499 1.03648,3.14894 1.03648,6.3663 0,2.1628 -0.0572,2.839 -0.23997,2.839 -0.0551,0 -0.24854,-0.23382 -0.42978,-0.5196 z"
     id="path749" /><path
     style="fill:#80e0df;fill-opacity:1;stroke-width:0.111766"
     d="m 278.1789,281.92073 3.85473,-3.85594 h 7.26481 7.26481 l -3.85472,3.85594 -3.85472,3.85594 h -7.26482 -7.26481 z"
     id="path750" /><path
     style="fill:#80e0df;fill-opacity:1;stroke-width:0.111766"
     d="m 280.07892,369.11648 c -6.73889,-5.99389 -10.78727,-13.18788 -11.3943,-20.2477 -0.14099,-1.63979 -0.14722,-2.85378 -0.0157,-3.06147 0.14996,-0.23681 0.55244,0.0976 2.3049,1.91493 5.84846,6.06503 9.20195,11.97384 10.22036,18.00812 0.26118,1.54749 0.36862,4.32207 0.17005,4.39108 -0.0615,0.0214 -0.63987,-0.43087 -1.28531,-1.00496 z"
     id="path751" /><path
     style="fill:#80e0df;fill-opacity:1;stroke-width:0.111766"
     d="m 284.94077,349.09358 c -1.84785,-0.50151 -4.67176,-2.09848 -6.93555,-3.92217 -2.15329,-1.73468 -5.07934,-5.29703 -5.07934,-6.1839 0,-1.06768 3.48712,-0.49999 6.46035,1.05172 2.26519,1.18219 4.331,2.96228 5.53137,4.76632 0.71192,1.06995 1.03263,1.76336 1.25854,2.72106 0.38451,1.63014 0.14002,1.94026 -1.23537,1.56697 z"
     id="path752" /><path
     style="fill:#80e0df;fill-opacity:1;stroke-width:0.111766"
     d="m 293.81913,355.45131 c -0.74533,-0.80475 -3.73203,-2.84171 -5.07957,-3.46431 -0.46788,-0.21618 -1.33798,-0.54819 -1.93356,-0.73781 -0.59558,-0.18963 -1.12525,-0.38246 -1.17705,-0.42852 -0.19057,-0.16946 0.16199,-0.54917 0.6269,-0.67518 1.20964,-0.32787 1.34095,-0.50406 1.19224,-1.59985 -0.27644,-2.03716 -1.35294,-4.53337 -2.5357,-5.87989 -0.58425,-0.66514 -0.75644,-1.02741 -0.90743,-1.90918 -0.13459,-0.78596 -0.15389,-3.55538 -0.0279,-4.00615 0.17497,-0.62614 0.39231,-0.44716 2.83994,2.33881 3.44521,3.92143 4.5571,5.72773 5.77914,9.38837 0.96646,2.89504 1.86159,6.90154 1.60031,7.16281 -0.0654,0.0654 -0.20751,-0.006 -0.3773,-0.1891 z"
     id="path753" /><path
     style="fill:#80e0df;fill-opacity:1;stroke-width:0.111766"
     d="m 298.85568,368.0181 c -4.35374,-1.48532 -8.87631,-5.94091 -11.45273,-11.28311 -0.69248,-1.43584 -1.57999,-4.00763 -1.47628,-4.27788 0.0985,-0.25672 0.46251,-0.22357 1.53582,0.13989 2.07115,0.70138 3.93184,1.88564 5.87421,3.73872 2.59376,2.47455 4.62313,5.52418 5.56701,8.36586 0.3856,1.16092 0.67414,2.70845 0.60421,3.24065 l -0.0375,0.28559 z"
     id="path754" /><path
     style="fill:#80e0df;fill-opacity:1;stroke-width:0.111766"
     d="m 300.98978,352.155 c -3.64935,-1.68019 -6.39811,-6.52621 -6.93571,-12.22753 -0.15916,-1.68793 -0.15118,-2.17944 0.0354,-2.17944 0.18794,0 2.68287,2.55336 3.60389,3.68829 2.01674,2.48514 3.28406,5.00318 3.85323,7.65599 0.24241,1.12987 0.41704,3.41348 0.26004,3.4006 -0.0555,-0.005 -0.42307,-0.15662 -0.81684,-0.33791 z"
     id="path755" /><path
     style="fill:#80e0df;fill-opacity:1;stroke-width:0.111766"
     d="m 314.54218,358.96812 c -1.59375,-0.82128 -4.85388,-3.8844 -6.58548,-6.18752 -0.67856,-0.90252 -2.81896,-4.34509 -3.82624,-6.15405 -1.82026,-3.26895 -3.11358,-6.53143 -2.5892,-6.53143 0.19262,0 1.46546,0.67413 2.17626,1.15261 2.09343,1.40919 4.96833,4.33032 6.95045,7.06222 2.81188,3.87555 4.85111,8.3571 4.70848,10.3477 -0.0423,0.59029 -0.18686,0.64409 -0.83427,0.31047 z"
     id="path756" /><path
     style="fill:#80e0df;fill-opacity:1;stroke-width:0.111766"
     d="m 332.91299,370.00264 c -0.34814,-0.20964 -0.84813,-0.55618 -1.11109,-0.77007 -0.26295,-0.2139 -1.25766,-0.89397 -2.21047,-1.51127 -2.2792,-1.47664 -3.08183,-2.05239 -4.35889,-3.12674 -1.717,-1.44447 -3.0895,-2.85948 -3.73505,-3.85074 -1.26469,-1.94195 -3.85778,-6.72244 -3.72079,-6.85943 0.22052,-0.22052 5.17069,2.60423 7.76091,4.42865 3.55054,2.50082 4.65544,3.85107 7.45373,9.10896 1.02953,1.93445 1.28918,2.58702 1.13111,2.84279 -0.13447,0.21757 -0.56932,0.12332 -1.20946,-0.26215 z"
     id="path757" /><path
     style="fill:#80e0df;fill-opacity:1;stroke-width:0.111766"
     d="m 334.6116,355.5846 c -0.0256,-0.0253 -0.79349,-0.10138 -1.7064,-0.16901 -1.96092,-0.14526 -2.95429,-0.33318 -4.5432,-0.85944 -4.81392,-1.59441 -9.59866,-5.5437 -12.3746,-10.21391 -1.31593,-2.21389 -1.42808,-2.57062 -0.80818,-2.57062 0.59569,0 3.73656,0.68656 4.88964,1.06883 4.91026,1.62784 10.89896,6.51759 14.44945,11.79793 0.62438,0.92858 0.65028,0.99227 0.40353,0.99227 -0.14502,0 -0.28463,-0.0207 -0.31024,-0.046 z"
     id="path758" /><path
     style="fill:#80e0df;fill-opacity:1;stroke-width:0.111766"
     d="m 343.95341,349.92207 c -0.55325,-0.42737 -1.53093,-1.13738 -2.17262,-1.57781 -2.39564,-1.64424 -4.9154,-3.93359 -6.43455,-5.84616 -3.03455,-3.82043 -4.40637,-7.67773 -3.53029,-9.92654 0.2356,-0.60478 0.1551,-1.17888 -0.21757,-1.55155 -0.31001,-0.31001 -0.39168,-0.33586 -0.92207,-0.29181 -0.87983,0.0731 -1.10436,0.28525 -1.84981,1.74796 -0.36556,0.71729 -0.8652,1.65623 -1.1103,2.08653 l -0.44566,0.78236 -8.06581,-0.0165 c -4.43619,-0.009 -8.23582,-0.0484 -8.44363,-0.0874 -0.31224,-0.0586 -0.92594,-0.63777 -3.53522,-3.33645 -3.44197,-3.55989 -4.65445,-4.91841 -4.705,-5.2717 -0.0206,-0.14393 -0.10307,-0.21755 -0.2217,-0.19789 -0.29254,0.0485 -0.76111,-0.83883 -0.76111,-1.44128 0,-1.076 0.50425,-1.3283 2.65471,-1.3283 h 1.54422 l 0.1936,0.32775 c 0.32576,0.55145 2.64999,3.71358 3.20943,4.36644 0.28972,0.33809 0.62798,0.81589 0.75169,1.06178 0.3502,0.69608 0.77336,1.95535 0.86293,2.568 0.10993,0.75191 0.40683,1.29646 0.96938,1.77798 1.39412,1.19332 3.9849,1.2593 6.2437,0.15901 3.36461,-1.63894 4.14591,-5.45422 1.63046,-7.96196 -1.24714,-1.24331 -2.65827,-1.79341 -4.412,-1.71991 -1.33184,0.0558 -2.01029,0.33863 -2.9915,1.24705 -0.81964,0.75885 -1.09637,0.8021 -1.58336,0.24745 -0.18605,-0.2119 -0.84639,-1.39383 -1.46741,-2.62651 l -1.12914,-2.24124 h -4.68944 -4.68943 l -0.28209,0.55669 c -0.40027,0.7899 -0.61224,1.80321 -0.61415,2.93601 l -0.002,0.97795 -4.21918,-0.006 -4.21918,-0.006 4.83956,-4.78339 4.83957,-4.78338 2.03406,-0.0731 c 1.11874,-0.0402 4.84261,-0.10574 8.27527,-0.14571 l 6.2412,-0.0727 6.22075,6.21157 6.22075,6.21156 1.15793,-0.15424 c 1.24801,-0.16624 1.63854,-0.26979 2.31165,-0.61297 0.23849,-0.12159 0.54556,-0.22107 0.68238,-0.22107 0.24351,0 0.41121,-0.14913 1.20175,-1.0687 0.47218,-0.54926 1.21618,-0.9685 2.19052,-1.23435 1.00511,-0.27426 3.47102,-0.27191 4.91771,0.005 2.95466,0.56489 5.79425,1.93195 7.43457,3.57921 0.49125,0.49332 1.61851,1.96265 1.61851,2.10964 0,0.087 -0.93512,0.17786 -3.14127,0.30507 -3.51948,0.20293 -6.71042,-0.0816 -10.16534,-0.90659 -1.99039,-0.47525 -3.10385,-0.56668 -3.34611,-0.27477 -0.21829,0.26302 0.0888,0.62084 1.31369,1.53076 1.32227,0.98225 4.23241,3.85978 5.49379,5.43222 1.89435,2.36152 3.05619,4.28041 3.63435,6.00247 0.84311,2.51125 2.07654,8.34979 1.75758,8.31969 -0.0403,-0.004 -0.52588,-0.35658 -1.07912,-0.78395 z"
     id="path759" /><path
     style="fill:#80e0df;fill-opacity:1;stroke-width:0.111766"
     d="m 313.59328,331.83406 c -0.21805,-0.17674 -0.26104,-0.30948 -0.24762,-0.76454 0.0259,-0.87915 0.50014,-1.73579 1.53894,-2.78002 0.82573,-0.83004 0.95849,-0.91977 1.53907,-1.04025 0.34947,-0.0725 0.85242,-0.27894 1.11767,-0.45871 0.44488,-0.30151 0.87345,-0.42922 0.87345,-0.26028 0,0.0389 -0.10536,0.24111 -0.23413,0.44947 -0.16824,0.27222 -0.2597,0.67714 -0.32494,1.43866 -0.0716,0.83572 -0.15304,1.16601 -0.38512,1.56202 -0.33516,0.57191 -1.46233,1.5565 -2.12821,1.859 -0.60161,0.2733 -1.4084,0.27084 -1.74911,-0.005 z"
     id="path760" /><path
     style="fill:#80e0df;fill-opacity:1;stroke-width:0.111766"
     d="m 349.87702,322.63307 c -0.12294,-0.0684 -0.85222,-0.60163 -1.62061,-1.18498 -0.79339,-0.60233 -1.80022,-1.25133 -2.33003,-1.50194 l -0.93295,-0.44128 -3.42594,-0.0942 c -1.88426,-0.0518 -6.67025,-0.0964 -10.63552,-0.0991 l -7.20959,-0.005 -3.57521,-3.57652 -3.57521,-3.57653 h -7.15279 -7.15279 l 2.56971,-2.58017 c 1.41334,-1.41909 3.90416,-3.85195 5.53514,-5.40634 l 2.96542,-2.82618 3.55228,-0.0833 c 1.95376,-0.0458 6.51699,-0.0459 10.1405,-2.2e-4 l 6.58821,0.083 0.39381,0.74941 c 1.05809,2.01355 3.27241,3.14536 5.47872,2.80035 1.74257,-0.27249 3.24725,-1.36184 3.97492,-2.87775 0.33025,-0.68801 0.36712,-0.87182 0.40943,-2.0414 0.04,-1.10465 0.0122,-1.38743 -0.19748,-2.01179 -0.6566,-1.95515 -2.2324,-3.27567 -4.29081,-3.59568 -2.03673,-0.31665 -3.86315,0.54745 -5.12,2.42232 l -0.48356,0.72134 -7.91208,0.0474 c -5.96023,0.0357 -7.88755,0.0156 -7.81268,-0.0813 0.75831,-0.98245 3.02898,-3.70332 4.46799,-5.35385 l 1.82707,-2.09562 h 7.96928 7.96929 l 0.43385,0.74571 c 1.26045,2.16644 3.35917,3.10653 5.70186,2.55407 1.4646,-0.34539 2.78921,-1.17174 3.52696,-2.20027 l 0.41248,-0.57507 0.0402,1.44222 c 0.0221,0.79322 0.0509,4.57986 0.0641,8.41475 l 0.024,6.97253 -6.00903,-0.043 c -3.30496,-0.0237 -7.86994,-0.0257 -10.14438,-0.005 l -4.13536,0.0384 -0.64477,-0.89999 c -0.75793,-1.05793 -1.56495,-1.68366 -2.62751,-2.03726 -1.37614,-0.45795 -3.17798,-0.25838 -4.41158,0.48864 -1.73162,1.04858 -2.80594,3.34817 -2.45237,5.24936 0.56884,3.05882 3.93197,5.1266 6.86481,4.22074 1.23914,-0.38273 1.96597,-1.01574 2.85674,-2.488 l 0.52407,-0.86619 h 10.08811 10.0881 l -0.0125,2.87798 c -0.0199,4.56496 -0.14355,8.61184 -0.26688,8.7334 -0.0735,0.0724 -0.18835,0.0676 -0.3353,-0.0142 z"
     id="path761" /><path
     style="fill:#80e0df;fill-opacity:1;stroke-width:0.111766"
     d="m 323.10566,311.28734 c -0.19987,-0.25271 -0.23199,-0.40229 -0.18066,-0.84135 0.12794,-1.09451 1.33567,-2.76911 2.3821,-3.30296 0.2515,-0.12831 0.75465,-0.28118 1.11811,-0.33971 0.36346,-0.0585 0.84291,-0.21385 1.06544,-0.34515 0.46426,-0.27392 0.63885,-0.15376 0.37087,0.25524 -0.096,0.14645 -0.27232,0.77978 -0.39191,1.40739 -0.24191,1.26953 -0.33373,1.4207 -1.48901,2.45154 -0.81743,0.72938 -1.41144,1.01663 -2.10909,1.01991 -0.43841,0.002 -0.562,-0.0471 -0.76585,-0.30491 z"
     id="path762" /><path
     style="fill:#80e0df;fill-opacity:1;stroke-width:0.111766"
     d="m 336.96801,302.2388 c -0.4036,-0.1484 -0.55883,-0.40565 -0.55883,-0.92607 0,-1.49051 2.11728,-3.80059 3.48339,-3.80059 0.21733,0 0.63161,-0.12574 0.92064,-0.27942 0.28903,-0.15367 0.548,-0.27941 0.57548,-0.27941 0.12457,0 0.027,0.34832 -0.22308,0.79623 -0.17291,0.30971 -0.31274,0.8095 -0.38128,1.36275 -0.13076,1.0555 -0.41284,1.53384 -1.33057,2.25632 -0.91197,0.71795 -1.93029,1.07443 -2.48575,0.87019 z"
     id="path763" /><path
     style="fill:#80e0df;fill-opacity:1;stroke-width:0.111766"
     d="m 343.0956,291.02543 c -0.32677,-0.19066 -0.45955,-0.81187 -0.31863,-1.49067 0.33953,-1.63552 2.08118,-3.41259 3.35588,-3.42415 0.21515,-0.002 0.61358,-0.10444 0.8854,-0.22776 0.64886,-0.29438 0.77978,-0.16073 0.4698,0.4796 -0.13215,0.27299 -0.23781,0.71058 -0.23816,0.9863 -10e-4,0.93391 -0.19315,1.32875 -1.10138,2.26521 -1.01069,1.04211 -1.77977,1.52641 -2.41864,1.52305 -0.24588,-10e-4 -0.53131,-0.0515 -0.63427,-0.11158 z"
     id="path764" /><path
     style="fill:#80e0df;fill-opacity:1;stroke-width:0.111766"
     d="m 306.60984,290.64285 c -0.80186,-0.34276 -0.94206,-1.24238 -0.37154,-2.3841 0.38545,-0.77134 1.15934,-1.68459 1.72246,-2.03261 0.20767,-0.12835 0.76937,-0.30832 1.24822,-0.39994 0.47885,-0.0916 0.98397,-0.24083 1.12247,-0.33159 0.25681,-0.16827 0.595,-0.22191 0.595,-0.0944 0,0.0389 -0.10735,0.24432 -0.23855,0.45661 -0.15764,0.25506 -0.26901,0.68813 -0.32836,1.27684 -0.111,1.10108 -0.3944,1.62193 -1.35939,2.49841 -1.06837,0.97036 -1.78041,1.27145 -2.39031,1.01075 z"
     id="path765" /><path
     style="fill:#80e0df;fill-opacity:1;stroke-width:0.111766"
     d="m 326.83108,280.50163 c -0.37354,-0.18048 -0.63028,-0.81541 -0.5451,-1.3481 0.2577,-1.61152 2.1255,-3.5476 3.42251,-3.5476 0.22466,0 0.64496,-0.12573 0.93399,-0.27941 0.28903,-0.15368 0.54799,-0.27942 0.57547,-0.27942 0.11894,0 0.033,0.35126 -0.17014,0.69559 -0.132,0.22373 -0.26134,0.74154 -0.3231,1.29349 -0.0566,0.50622 -0.17011,1.00762 -0.25217,1.11422 -0.38108,0.49503 -1.30012,1.55544 -1.55171,1.79039 -0.62898,0.58738 -1.53277,0.82994 -2.08975,0.56084 z"
     id="path766" /><path
     style="fill:#80e0df;fill-opacity:1;stroke-width:0.111766"
     d="m 323.45734,258.54696 c -0.30576,-0.21417 -0.57189,-0.79551 -0.57189,-1.24927 0,-0.49729 0.61446,-1.60957 1.25992,-2.28065 0.82422,-0.85694 1.35665,-1.17505 2.18815,-1.30735 0.39039,-0.0621 0.88816,-0.21817 1.10615,-0.34679 0.52414,-0.30925 0.6693,-0.15069 0.35294,0.3855 -0.16862,0.28579 -0.27244,0.70765 -0.33025,1.34197 -0.10347,1.1352 -0.26508,1.4597 -1.17196,2.35329 -1.13086,1.11428 -2.21475,1.53638 -2.83306,1.1033 z"
     id="path767" /><path
     style="fill:#80e0df;fill-opacity:1;stroke-width:0.111766"
     d="m 308.35582,261.07728 v -4.35986 h 3.74417 3.74418 l 9.7e-4,-3.38093 9.8e-4,-3.38093 0.66245,-0.42679 c 1.69431,-1.09156 2.44247,-2.6305 2.13558,-4.39279 -0.26886,-1.54393 -1.07638,-2.6909 -2.32851,-3.30732 -0.68837,-0.33888 -0.82865,-0.36701 -1.81032,-0.36297 -1.34016,0.006 -2.08922,0.27721 -2.96109,1.07404 -0.91471,0.836 -1.32314,1.73843 -1.37837,3.04557 -0.0702,1.66265 0.42565,2.64427 1.89455,3.75023 0.40659,0.30612 0.77912,0.64631 0.82784,0.75596 0.0487,0.10965 0.11022,1.01666 0.13666,2.01557 l 0.0481,1.8162 h -2.07916 -2.07917 v -8.30934 -8.30934 l 3.46218,-0.0637 c 2.77489,-0.051 3.52964,-0.0973 3.80202,-0.2332 l 0.33984,-0.16954 0.28686,0.56609 c 0.63058,1.24439 1.77981,2.10377 3.07911,2.30252 2.44824,0.37448 4.76364,-1.17043 5.13027,-3.42311 0.31236,-1.91921 -0.86828,-4.01775 -2.66075,-4.72937 -0.97963,-0.38892 -2.53362,-0.37258 -3.40493,0.0358 -0.84258,0.39492 -1.6498,1.16546 -2.09399,1.99884 -0.30012,0.56308 -0.38669,0.65246 -0.52266,0.53962 -0.24329,-0.20191 -2.62227,-0.31064 -6.94294,-0.31733 l -3.828,-0.006 v 2.73827 2.73828 h -1.63553 -1.63553 l 0.0718,-15.06052 c 0.0395,-8.28328 0.10175,-15.27427 0.13842,-15.53552 0.0367,-0.26126 0.10104,-0.47501 0.14304,-0.47501 0.30433,0 5.30256,4.72218 10.3503,9.77866 4.26968,4.27706 5.84016,5.95919 7.02907,7.52877 0.44916,0.59297 1.91955,2.4361 3.26752,4.09583 5.12706,6.31286 7.05033,8.90334 8.83731,11.90312 0.85011,1.42706 3.58603,6.32634 4.52502,8.10306 1.2575,2.37939 3.63026,7.29694 3.99802,8.28592 0.17977,0.4834 0.60013,1.5076 0.93415,2.276 0.33403,0.76839 0.64227,1.51024 0.68498,1.64855 l 0.0777,0.25148 h -10.03724 -10.03723 l 0.57301,-0.57302 0.57301,-0.57301 1.1099,0.14145 c 1.91528,0.24408 3.37466,-0.20951 4.56475,-1.41877 2.06681,-2.1001 2.14667,-5.45708 0.17448,-7.3339 -1.23104,-1.1715 -2.32573,-1.58707 -3.96832,-1.50647 -1.68487,0.0827 -3.03072,0.7935 -4.04327,2.13547 -0.92297,1.22326 -1.16441,2.7568 -0.70316,4.46622 l 0.23897,0.88564 -3.43996,3.4413 -3.43995,3.44129 -2.19174,0.0689 c -1.20546,0.0379 -2.45579,0.0938 -2.77852,0.12437 l -0.58677,0.0555 z"
     id="path768" /><path
     style="fill:#80e0df;fill-opacity:1;stroke-width:0.111766"
     d="m 312.75461,247.89388 c -0.62493,-0.2654 -0.7555,-1.02409 -0.36097,-2.09743 0.30176,-0.82094 1.12637,-1.65261 2.127,-2.14522 0.77028,-0.37921 1.90421,-0.58167 2.03873,-0.36402 0.10459,0.16923 -0.12027,1.86343 -0.33191,2.50073 -0.40195,1.21042 -2.53533,2.50411 -3.47285,2.10594 z"
     id="path769" /><path
     style="fill:#80e0df;fill-opacity:1;stroke-width:0.111766"
     d="m 318.90176,237.82985 c -0.62482,-0.25215 -0.75182,-0.95875 -0.33162,-1.84509 0.37982,-0.80116 0.95995,-1.41715 1.70824,-1.81382 0.73032,-0.38714 1.95432,-0.81269 2.33754,-0.81269 0.2448,0 0.2472,0.0104 0.0799,0.34577 -0.13198,0.26456 -0.15469,0.52644 -0.0967,1.11501 0.0985,0.99959 -0.0852,1.39499 -0.98782,2.1262 -1.00457,0.81381 -2.04405,1.15318 -2.70955,0.88462 z"
     id="path770" /><path
     style="fill:#80e0df;fill-opacity:1;stroke-width:0.111766"
     d="m 108.15433,258.16757 c -0.56845,-0.34895 -0.68482,-1.39425 -0.25742,-2.31224 0.52132,-1.11972 1.62338,-1.96408 2.81709,-2.15837 0.38948,-0.0634 0.77911,-0.22305 1.07458,-0.44034 0.40872,-0.30057 0.48306,-0.32138 0.62853,-0.1759 0.14548,0.14547 0.14108,0.1914 -0.0371,0.38835 -0.13646,0.15079 -0.24583,0.56461 -0.33659,1.27357 -0.16398,1.28084 -0.34445,1.61201 -1.32913,2.43902 -1.10285,0.92625 -2.0579,1.29408 -2.55991,0.98591 z"
     id="path781" /><path
     style="fill:#80e0df;fill-opacity:1;stroke-width:0.111766"
     d="m 123.41044,253.17379 c -0.24918,-0.048 -0.25147,-0.066 -0.25147,-1.97413 v -1.92568 l 0.39355,-0.14231 c 0.53286,-0.19269 1.67859,-1.27344 2.06237,-1.94542 0.17203,-0.30121 0.33825,-0.50546 0.36938,-0.4539 0.0311,0.0516 0.0295,1.53972 -0.004,3.30703 l -0.0603,3.21328 -1.12919,-0.0152 c -0.62106,-0.008 -1.24236,-0.037 -1.38067,-0.0636 z"
     id="path782" /><path
     style="fill:#80e0df;fill-opacity:1;stroke-width:0.111766"
     d="m 119.90914,247.22588 c -0.2725,-0.27251 -0.3267,-0.41788 -0.3267,-0.87628 0,-1.5319 1.76182,-3.34242 3.7329,-3.83607 0.49587,-0.12419 0.56182,-0.11764 0.69854,0.0693 0.19368,0.26487 0.19017,0.52146 -0.0183,1.34176 -0.42178,1.6593 -1.24601,2.78664 -2.45718,3.36083 -0.76989,0.36499 -1.22113,0.34849 -1.62921,-0.0596 z"
     id="path783" /><path
     style="fill:#80e0df;fill-opacity:1;stroke-width:0.111766"
     d="m 113.91743,238.61683 c -0.64626,-0.39405 -0.7621,-1.01347 -0.37838,-2.02333 0.53766,-1.41502 1.75873,-2.48198 3.04894,-2.66414 0.41235,-0.0582 0.90485,-0.19749 1.09445,-0.30949 0.46101,-0.27232 0.62349,-0.0507 0.33104,0.45147 -0.12725,0.21851 -0.23147,0.70337 -0.27917,1.29871 -0.0912,1.13869 -0.31462,1.58755 -1.21296,2.43717 -1.02871,0.9729 -1.89458,1.24212 -2.60392,0.80961 z"
     id="path784" /><path
     style="fill:#80e0df;fill-opacity:1;stroke-width:0.111766"
     d="m 129.52499,233.94502 -0.005,-5.33684 -4.14687,-4.18543 -4.14688,-4.18544 1.77651,-1.73205 c 0.97707,-0.95263 3.77572,-3.68984 6.21921,-6.0827 l 4.44271,-4.35065 v 15.60498 15.60498 h -2.06767 -2.06768 z"
     id="path785" /><path
     style="fill:#80e0df;fill-opacity:1;stroke-width:0.111766"
     d="m 136.6827,222.85676 v -16.42511 l 1.64855,-1.35442 c 0.9067,-0.74492 1.7981,-1.43305 1.98087,-1.52917 0.32343,-0.17007 0.33838,-0.16624 0.55883,0.14341 0.48946,0.68749 2.86986,3.19398 6.84867,7.21146 l 4.1633,4.20376 v 12.08759 12.08759 h -2.79416 -2.79416 v -4.85574 -4.85575 l 0.81031,-0.42154 c 0.9611,-0.49999 2.05442,-1.53985 2.41996,-2.30164 1.02334,-2.1326 0.64396,-4.46944 -0.99448,-6.1257 -1.1124,-1.12451 -2.86891,-1.70727 -4.38916,-1.45621 -2.50859,0.41429 -4.32908,2.62769 -4.32908,5.26342 0,1.87414 0.72655,3.16633 2.44026,4.34007 l 1.0245,0.7017 v 4.85569 4.8557 h -3.29711 -3.2971 z"
     id="path786" /><path
     style="fill:#80e0df;fill-opacity:1;stroke-width:0.111766"
     d="m 143.31188,227.19024 c -1.2681,-0.3334 -1.00646,-2.29419 0.50229,-3.76426 0.77001,-0.75027 1.39691,-1.08009 2.34096,-1.23162 0.38433,-0.0617 0.81045,-0.19039 0.94694,-0.28599 0.31319,-0.21936 0.38113,-0.21791 0.46858,0.01 0.0394,0.10255 -0.0103,0.2732 -0.11242,0.38599 -0.11919,0.1317 -0.23345,0.61456 -0.32779,1.3853 -0.13623,1.11295 -0.17151,1.21767 -0.59466,1.76552 -0.42177,0.54603 -1.22489,1.23554 -1.76349,1.514 -0.41618,0.21518 -1.09309,0.31764 -1.46041,0.22107 z"
     id="path787" /><path
     style="fill:#80e0df;fill-opacity:1;stroke-width:0.111766"
     d="m 160.79724,226.5948 c -0.36547,-0.36547 -0.44501,-0.80359 -0.26904,-1.48198 0.19687,-0.75893 0.6791,-1.54382 1.35493,-2.20531 0.63025,-0.61686 1.12333,-0.86057 2.11493,-1.04528 0.36249,-0.0675 0.74911,-0.20424 0.85914,-0.30382 0.11004,-0.0996 0.25353,-0.14801 0.31887,-0.10763 0.14377,0.0889 0.15945,0.5073 0.019,0.5073 -0.16367,0 -0.24906,0.33662 -0.34832,1.37303 -0.10959,1.14446 -0.36201,1.6618 -1.23844,2.53823 -0.71996,0.71996 -1.28417,1.00646 -1.98202,1.00646 -0.43639,0 -0.6053,-0.0572 -0.82905,-0.281 z"
     id="path788" /><path
     style="fill:#80e0df;fill-opacity:1;stroke-width:0.111766"
     d="m 155.87857,239.19927 -0.64266,-0.0403 v -12.70122 -12.70122 l -5.18791,-5.14788 c -4.90199,-4.86417 -5.98849,-6.03877 -6.13035,-6.62745 -0.0933,-0.38708 0.27635,-0.75198 1.34925,-1.33197 0.5345,-0.28894 1.97772,-1.16272 3.20715,-1.94172 2.55499,-1.61891 6.23411,-3.80452 9.16484,-5.44442 2.42456,-1.35668 3.04285,-1.66165 3.15048,-1.55401 0.045,0.045 0.10026,2.38062 0.1228,5.19027 l 0.041,5.10846 -0.74839,0.43145 c -1.88408,1.08619 -2.73353,2.44736 -2.73353,4.38023 0,2.82134 2.06683,5.20584 4.66633,5.38352 1.62148,0.11084 3.04269,-0.41108 4.1527,-1.52501 1.13119,-1.13518 1.71053,-2.85521 1.48149,-4.3984 -0.23076,-1.55479 -1.03254,-2.72878 -2.65164,-3.8826 l -0.55172,-0.39318 v -6.07462 -6.07462 l 0.89413,-0.32763 c 0.49177,-0.1802 1.74915,-0.6214 2.79416,-0.98044 1.04502,-0.35904 2.60416,-0.91421 3.46476,-1.23372 2.73212,-1.01431 5.97961,-2.14114 7.73742,-2.68477 1.67798,-0.51894 1.70325,-0.52305 1.78826,-0.29107 0.0474,0.12942 0.07,8.93632 0.0502,19.57089 l -0.036,19.33558 -1.55662,1.56423 -1.55662,1.56424 V 215.19775 204.0236 l -1.07473,-1.07878 -1.07473,-1.07878 0.44428,-0.6556 c 0.92736,-1.36842 1.25458,-2.28537 1.25679,-3.5218 0.004,-2.03004 -1.21212,-3.84229 -3.18758,-4.75156 -0.93718,-0.43137 -2.39108,-0.49967 -3.49551,-0.16422 -1.64354,0.49921 -2.92027,1.73457 -3.3896,3.27975 -0.19616,0.6458 -0.22805,0.97697 -0.18573,1.92864 0.0458,1.02886 0.0927,1.2366 0.4493,1.98745 0.76612,1.61322 1.86237,2.48219 3.64295,2.88767 1.27467,0.29028 1.895,0.57854 2.61892,1.21697 l 0.53089,0.46821 v 12.64927 12.64928 l -1.90003,1.89756 -1.90003,1.89756 v 2.82334 2.82333 h -3.29711 -3.2971 v -4.89231 -4.8923 l 0.36621,-0.19722 c 0.7277,-0.39189 1.76703,-1.263 2.20291,-1.84637 0.7853,-1.05101 1.10042,-2.73898 0.77499,-4.15128 -0.47481,-2.06059 -2.18482,-3.7029 -4.20246,-4.03611 -1.96937,-0.32523 -4.1581,0.70077 -5.34149,2.50391 -0.63674,0.97021 -0.87101,1.85488 -0.82159,3.10263 0.037,0.93496 0.0887,1.16461 0.40769,1.81262 0.43766,0.88901 1.02192,1.4941 2.22174,2.30091 l 0.89479,0.6017 0.0716,1.24245 c 0.0394,0.68334 0.0718,2.86445 0.0721,4.8469 l 5e-4,3.60447 -2.20738,-0.0211 c -1.21406,-0.0116 -2.49658,-0.0393 -2.85004,-0.0615 z"
     id="path789" /><path
     style="fill:#80e0df;fill-opacity:1;stroke-width:0.111766"
     d="m 161.26347,209.38686 c -0.15798,-0.0859 -0.37835,-0.35825 -0.48971,-0.6052 -0.71345,-1.58216 1.19509,-4.25913 3.03654,-4.25913 0.18349,0 0.57494,-0.1283 0.86987,-0.28512 0.65576,-0.34868 0.82954,-0.23764 0.50061,0.31987 -0.16312,0.27646 -0.26707,0.71574 -0.33123,1.39973 -0.0514,0.54825 -0.16933,1.14345 -0.26201,1.32268 -0.26489,0.51224 -1.57765,1.77526 -2.11609,2.03591 -0.56516,0.27359 -0.80942,0.288 -1.20798,0.0713 z"
     id="path790" /><path
     style="fill:#80e0df;fill-opacity:1;stroke-width:0.111766"
     d="m 170.95642,200.03699 c -0.24159,-0.14043 -0.62606,-0.93501 -0.6296,-1.30116 -0.004,-0.43907 0.41344,-1.46158 0.82736,-2.02545 0.60731,-0.82733 1.4313,-1.34154 2.36059,-1.47315 0.42275,-0.0599 0.93692,-0.20814 1.1426,-0.32949 0.64179,-0.37867 0.74364,-0.24433 0.37016,0.48824 -0.11976,0.23489 -0.24944,0.80092 -0.2935,1.281 -0.0924,1.00675 -0.28732,1.44007 -1.00889,2.24264 -0.92311,1.02672 -2.10447,1.50348 -2.76872,1.11737 z"
     id="path791" /><path
     style="fill:#80e0df;fill-opacity:1;stroke-width:0.111766"
     d="m 174.23619,237.12992 v -2.15195 l 5.25302,-5.25213 5.25302,-5.25212 v -5.10493 -5.10494 l 5.30731,0.002 5.30732,0.002 0.33334,-0.2805 c 0.18334,-0.15427 0.62414,-0.59453 0.97955,-0.97836 l 0.64619,-0.69787 0.0559,-5.03268 0.0559,-5.03267 1.11766,-0.79425 c 0.77355,-0.5497 1.22887,-0.96364 1.47885,-1.34444 0.51375,-0.78261 1.02901,-2.28466 1.10674,-3.22627 0.31445,-3.80943 -3.11375,-6.50528 -7.11517,-5.59518 -0.9726,0.22122 -1.81799,0.82313 -2.57759,1.83525 -1.96688,2.62072 -1.64261,5.97914 0.75327,7.80149 0.34724,0.26411 0.84481,0.66811 1.10572,0.89777 l 0.47437,0.41756 0.0829,4.21554 0.0829,4.21554 -2.11071,0.0153 c -3.51275,0.0255 -6.79965,-0.0315 -6.89302,-0.1196 -0.0485,-0.0457 -0.11951,-6.27068 -0.1579,-13.83325 l -0.0698,-13.75012 1.38733,-0.25089 c 0.76304,-0.13799 2.04117,-0.39485 2.8403,-0.57081 4.38963,-0.96653 13.42013,-2.39539 16.54142,-2.61729 0.49177,-0.035 1.13303,-0.0888 1.42502,-0.1196 l 0.53089,-0.056 v 29.20264 29.20264 l -4.54654,-4.54654 -4.54654,-4.54654 0.20076,-0.48278 c 0.66646,-1.60264 0.75898,-1.94401 0.767,-2.82986 0.0149,-1.64529 -0.69923,-3.09695 -2.01506,-4.09628 -0.93271,-0.70837 -1.76085,-1.00938 -2.9563,-1.07456 -1.25362,-0.0683 -2.24433,0.2134 -3.18475,0.9057 -1.75742,1.29374 -2.49185,3.29073 -1.99119,5.41426 0.58941,2.49999 2.50844,4.04801 5.0182,4.04801 0.83376,0 0.96618,0.0315 1.46913,0.34913 0.30402,0.19203 2.36339,2.15272 4.57636,4.35709 l 4.02359,4.00796 -15.00464,0.002 -15.00463,0.002 z"
     id="path792" /><path
     style="fill:#80e0df;fill-opacity:1;stroke-width:0.111766"
     d="m 193.94124,199.22305 c -0.28732,-0.24737 -0.31337,-0.33398 -0.31098,-1.03384 0.002,-0.62941 0.0595,-0.86742 0.32607,-1.35236 0.72112,-1.31203 1.66144,-2.0741 2.71661,-2.20164 0.35365,-0.0427 0.80934,-0.1743 1.01263,-0.29234 0.39902,-0.23167 0.69215,-0.27794 0.69215,-0.10923 0,0.058 -0.10041,0.27557 -0.22315,0.48359 -0.1426,0.24169 -0.25859,0.72789 -0.32133,1.34688 -0.0906,0.89374 -0.1341,1.01622 -0.56251,1.58365 -0.25538,0.33825 -0.64021,0.79088 -0.85518,1.00585 -0.84233,0.84233 -1.87998,1.08114 -2.47431,0.56944 z"
     id="path793" /><path
     style="fill:#80e0df;fill-opacity:1;stroke-width:0.111766"
     d="m 192.4416,227.49593 c -0.90977,-0.5112 -0.58059,-2.12355 0.71274,-3.49105 0.74714,-0.78999 1.15661,-1.02837 1.99972,-1.16415 0.38549,-0.0621 0.89073,-0.21957 1.12277,-0.34999 0.507,-0.28495 0.63505,-0.20051 0.42754,0.28191 -0.0849,0.19744 -0.16,0.6859 -0.16683,1.08546 -0.0163,0.9525 -0.31563,1.56083 -1.20799,2.45494 -1.07597,1.07807 -2.23189,1.55153 -2.88795,1.18288 z"
     id="path794" /><path
     style="fill:#80e0df;fill-opacity:1;stroke-width:0.111766"
     d="m 216.73593,222.15908 c -0.53662,-0.14105 -0.7353,-0.51925 -0.67933,-1.29313 0.0573,-0.79138 0.40051,-1.52378 1.05578,-2.25259 0.67736,-0.75339 1.10346,-0.99278 2.10978,-1.18532 0.47066,-0.09 0.96359,-0.23927 1.09539,-0.33159 0.3853,-0.26987 0.56371,-0.21736 0.47405,0.1395 -0.0425,0.16905 -0.11845,0.69312 -0.16883,1.16461 -0.1082,1.01235 -0.45665,1.73107 -1.23069,2.53838 -0.95776,0.99891 -1.8822,1.42357 -2.65615,1.22014 z"
     id="path795" /><path
     style="fill:#80e0df;fill-opacity:1;stroke-width:0.111766"
     d="m 210.78379,209.34208 v -29.93979 l 0.47501,-0.13402 c 0.26573,-0.075 1.57061,-0.16117 2.96181,-0.19566 l 2.4868,-0.0616 v 0.85267 c 0,0.99422 -0.0848,1.12181 -1.04911,1.57799 -2.47119,1.16906 -3.34364,4.16282 -2.01976,6.93066 1.30267,2.7235 4.30279,3.73297 6.89738,2.32082 1.13506,-0.61777 2.24908,-2.1908 2.55206,-3.60357 0.0697,-0.32492 0.10711,-1.07849 0.0832,-1.67461 -0.0378,-0.94075 -0.0903,-1.17876 -0.39742,-1.80271 -0.48096,-0.97696 -1.20873,-1.67124 -2.39305,-2.28291 -1.71479,-0.88566 -1.77719,-1.4746 -0.20798,-1.96299 0.81012,-0.25214 2.54039,-0.28947 3.99512,-0.0862 l 0.92207,0.12884 v 29.93645 29.93645 h -2.79416 -2.79415 v -6.9854 c 0,-4.86886 0.0361,-6.9854 0.11909,-6.9854 0.0655,0 0.48247,-0.16789 0.9266,-0.37309 1.37594,-0.63572 2.30433,-1.76411 2.69941,-3.28092 0.60007,-2.30381 -0.62924,-4.99517 -2.76086,-6.04442 -2.24782,-1.10644 -4.67636,-0.66058 -6.34471,1.16486 -1.45277,1.58957 -1.80462,3.805 -0.90605,5.70503 0.38364,0.8112 1.40531,1.93375 2.18374,2.39935 l 0.58345,0.34898 0.0732,2.34934 c 0.0402,1.29213 0.0732,4.45361 0.0732,7.0255 v 4.67617 h -2.6824 -2.68239 z"
     id="path796" /><path
     style="fill:#80e0df;fill-opacity:1;stroke-width:0.111766"
     d="m 216.47246,188.50783 c -0.20887,-0.14061 -0.44595,-0.39328 -0.52685,-0.56149 -0.43747,-0.9097 0.83866,-3.10956 2.21746,-3.82257 0.19325,-0.0999 0.66148,-0.23134 1.04052,-0.29203 0.37904,-0.0607 0.85549,-0.2081 1.05879,-0.32758 0.63747,-0.37465 0.73836,-0.23906 0.36582,0.49165 -0.11976,0.2349 -0.24944,0.80092 -0.29349,1.281 -0.0948,1.03317 -0.28084,1.42645 -1.10282,2.3314 -1.01018,1.11214 -1.97598,1.42701 -2.75943,0.89962 z"
     id="path797" /><path
     style="fill:#80e0df;fill-opacity:1;stroke-width:0.111766"
     d="m 237.84148,239.17155 -6.08104,-0.0573 3.78983,-3.71553 c 2.0844,-2.04354 4.05892,-3.91702 4.38782,-4.1633 l 0.598,-0.44776 h 1.15055 c 1.40753,0 2.30357,-0.24806 3.30032,-0.91366 0.80275,-0.53607 1.54093,-1.46939 1.90943,-2.41421 0.35598,-0.91275 0.35532,-2.6039 -0.001,-3.5187 -0.63661,-1.63266 -1.5071,-2.66543 -2.77463,-3.29187 -0.76186,-0.37654 -0.94721,-0.42093 -1.9177,-0.45937 -1.31805,-0.0522 -2.15797,0.1894 -3.27235,0.94127 -1.23463,0.833 -1.96661,1.9622 -2.22054,3.42556 -0.1585,0.91344 -0.031,1.79941 0.44789,3.11152 l 0.32195,0.88216 -2.53452,2.22752 c -1.39399,1.22514 -3.36438,3.09565 -4.37866,4.15669 l -1.84415,1.92916 -0.065,-7.48075 c -0.1013,-11.66868 0.0298,-49.79534 0.17179,-49.97838 0.0113,-0.0145 0.40407,0.047 0.87289,0.13668 0.86304,0.16512 3.42451,0.46203 6.78803,0.78681 4.78503,0.46203 10.02659,1.45094 13.37409,2.52324 l 1.04377,0.33435 6e-5,13.76996 6e-5,13.76995 -4.33006,-0.0363 c -2.38154,-0.02 -4.34329,-0.0495 -4.35944,-0.0657 -0.0162,-0.0161 -0.0591,-1.93616 -0.0955,-4.26668 l -0.0661,-4.23733 0.86207,-0.50294 c 1.49515,-0.87231 2.45614,-2.25295 2.74015,-3.93677 0.34329,-2.03523 -0.71675,-4.18577 -2.48902,-5.04959 -0.75042,-0.36577 -2.20303,-0.73732 -2.88259,-0.73732 -2.67175,0 -5.02086,2.00807 -5.47098,4.6767 -0.15928,0.94431 -0.0163,1.93636 0.40417,2.80475 0.3737,0.77176 1.53877,1.93567 2.46561,2.46315 0.58952,0.33551 0.69189,0.44236 0.74956,0.78237 0.0367,0.21658 0.095,2.33014 0.12956,4.69679 0.0844,5.78614 0.16673,6.29338 1.08945,6.71231 0.4384,0.19904 0.80438,0.21245 5.86033,0.21475 l 5.39272,0.002 v 5.01063 5.01063 l 1.64528,1.55565 c 0.9049,0.8556 3.2939,3.21263 5.3089,5.23785 l 3.66363,3.68221 v 2.26935 2.26935 l -8.8016,-0.0265 c -4.84088,-0.0146 -11.53807,-0.0523 -14.88264,-0.0838 z"
     id="path798" /><path
     style="fill:#80e0df;fill-opacity:1;stroke-width:0.111766"
     d="m 238.31194,199.38596 c -0.74329,-0.45321 -0.71382,-1.56212 0.0738,-2.77614 0.77042,-1.18755 1.65257,-1.80145 2.89845,-2.01708 0.39305,-0.068 0.80704,-0.2073 0.91997,-0.30951 0.16374,-0.14817 0.23846,-0.15833 0.36885,-0.0501 0.14233,0.11813 0.13509,0.19025 -0.0559,0.55673 -0.13756,0.26392 -0.24594,0.76451 -0.29044,1.34155 -0.0568,0.73713 -0.13021,1.00872 -0.36828,1.3632 -0.79099,1.17774 -2.0486,2.10709 -2.85354,2.10871 -0.18442,3.7e-4 -0.49621,-0.0974 -0.69286,-0.21734 z"
     id="path799" /><path
     style="fill:#80e0df;fill-opacity:1;stroke-width:0.111766"
     d="m 240.15445,227.4846 c -0.88801,-0.48198 -0.5557,-2.22634 0.67471,-3.54175 0.62313,-0.66619 1.31966,-1.03506 2.12764,-1.12677 0.32946,-0.0374 0.77242,-0.17031 0.98435,-0.29535 0.65338,-0.38551 0.75711,-0.25517 0.38219,0.48023 -0.12909,0.25319 -0.24515,0.79469 -0.29271,1.36573 -0.0918,1.10178 -0.38047,1.64283 -1.27714,2.39356 -0.9869,0.82628 -1.928,1.08856 -2.59904,0.72435 z"
     id="path800" /><path
     style="fill:#80e0df;fill-opacity:1;stroke-width:0.111766"
     d="m 265.10224,236.62622 v -2.65565 l -1.95591,-1.95351 -1.95591,-1.95352 V 217.4201 204.77665 l 0.54126,-0.50628 c 0.74059,-0.69275 1.07673,-0.8435 2.15898,-0.96828 1.62632,-0.18753 2.52121,-0.64239 3.66105,-1.86088 1.57859,-1.68752 2.11052,-4.06026 1.28185,-5.71791 -0.35893,-0.71801 -1.70887,-1.97495 -2.61247,-2.4325 -2.09638,-1.06153 -4.51043,-0.70861 -6.26514,0.91594 -1.78419,1.65185 -2.08051,4.13809 -0.77534,6.50565 0.18332,0.33255 0.33331,0.65144 0.33331,0.70866 0,0.0572 -0.21822,0.36352 -0.48493,0.68068 -0.26671,0.31716 -0.64392,0.81205 -0.83825,1.09974 l -0.35331,0.52309 -0.0159,7.24467 c -0.009,3.98458 -0.0465,9.17244 -0.0838,11.5286 l -0.0679,4.28392 -1.47349,-1.43388 -1.47349,-1.43388 -0.0595,-19.87451 -0.0595,-19.87452 0.35944,0.0768 c 1.4355,0.30664 7.16283,2.09887 9.33591,2.92144 0.90274,0.34171 2.949,1.08824 4.54726,1.65896 l 2.90593,1.03768 -0.009,0.59743 c -0.005,0.32859 -0.0507,3.1764 -0.10176,6.32847 l -0.0929,5.73103 -0.64755,0.34514 c -1.8299,0.97533 -2.89309,2.73136 -2.89309,4.77839 0,2.62492 1.5758,4.69527 4.00671,5.26419 0.79493,0.18603 2.37592,0.16023 3.17958,-0.0519 2.46389,-0.65034 4.19694,-3.52954 3.76944,-6.26237 -0.27361,-1.74916 -1.42178,-3.34328 -2.92454,-4.06045 -0.40836,-0.19488 -0.77406,-0.43664 -0.81266,-0.53725 -0.0386,-0.10061 -0.10098,-2.22556 -0.1386,-4.72213 -0.0509,-3.37768 -0.034,-4.66416 0.0661,-5.02755 0.12884,-0.46764 0.14977,-0.48588 0.49356,-0.43009 0.19746,0.032 0.9106,0.359 1.58477,0.72656 0.67417,0.36757 2.68431,1.44612 4.46698,2.39678 1.78268,0.95067 3.543,1.92207 3.91183,2.15867 0.36883,0.2366 1.60105,0.96976 2.73827,1.62924 3.06051,1.7748 4.35889,2.58702 4.35889,2.72678 0,0.23554 -1.48841,1.79609 -6.77479,7.10312 l -5.29598,5.31668 v 12.70565 12.70565 l -1.31325,-4.6e-4 c -0.72229,-2.4e-4 -1.96075,-0.0335 -2.75213,-0.0738 l -1.43887,-0.0734 0.0559,-1.12765 c 0.0308,-0.62021 0.0895,-1.20739 0.13051,-1.30485 0.041,-0.0975 0.47546,-0.41564 0.9654,-0.70708 1.14654,-0.68201 1.45588,-0.9484 1.89388,-1.63097 0.97709,-1.52265 1.03558,-3.53347 0.15366,-5.28234 -0.8423,-1.67032 -2.38007,-2.72475 -4.28933,-2.94115 -2.97019,-0.33664 -5.74925,2.5095 -5.5613,5.69556 0.0325,0.55105 0.15063,1.16023 0.30057,1.5501 0.28957,0.7529 1.09996,1.68941 1.91383,2.21167 0.80153,0.51434 0.88804,0.74205 0.88804,2.33763 v 1.34675 h -3.24123 -3.24122 z"
     id="path801" /><path
     style="fill:#80e0df;fill-opacity:1;stroke-width:0.111766"
     d="m 261.95853,200.31431 c -0.0961,-0.11569 -0.16781,-0.54927 -0.192,-1.16127 -0.0461,-1.16548 0.14421,-1.70227 0.89035,-2.51173 0.58423,-0.63382 1.29101,-1.00669 2.11006,-1.1132 0.33809,-0.044 0.82811,-0.18447 1.08893,-0.31224 0.57196,-0.28019 0.70929,-0.18886 0.43415,0.28874 -0.1128,0.19582 -0.26968,0.81659 -0.34863,1.37949 -0.17607,1.25546 -0.4913,1.7702 -1.59202,2.59965 -1.28291,0.96674 -2.0549,1.23492 -2.39084,0.83056 z"
     id="path802" /><path
     style="fill:#80e0df;fill-opacity:1;stroke-width:0.111766"
     d="m 272.08764,209.89849 c -0.7592,-0.32794 -0.86316,-1.20188 -0.28032,-2.35649 0.40482,-0.80194 1.40626,-1.86615 2.03143,-2.15876 0.22546,-0.10553 0.65297,-0.22255 0.95002,-0.26005 0.29705,-0.0375 0.70642,-0.16284 0.90972,-0.27854 0.34671,-0.19731 0.69215,-0.27612 0.69215,-0.15791 0,0.0288 -0.10555,0.25495 -0.23457,0.50247 -0.14608,0.28027 -0.26294,0.7802 -0.30978,1.32532 -0.0429,0.4993 -0.15237,0.99161 -0.25481,1.14608 -0.38979,0.58774 -1.60015,1.80174 -1.99943,2.00543 -0.50675,0.25853 -1.1971,0.3652 -1.50441,0.23245 z"
     id="path803" /><path
     style="fill:#80e0df;fill-opacity:1;stroke-width:0.111766"
     d="m 272.06621,233.69373 c -1.00974,-0.41188 -0.6592,-2.20961 0.72168,-3.70112 0.70876,-0.76555 1.24583,-1.07986 2.00972,-1.17616 0.29219,-0.0368 0.69758,-0.16164 0.90088,-0.27733 0.2033,-0.1157 0.4422,-0.21035 0.53089,-0.21035 0.20534,0 0.20905,0.26827 0.006,0.43676 -0.19829,0.16456 -0.40348,0.97542 -0.40402,1.59658 -5.1e-4,0.59028 -0.19423,0.91567 -1.17011,1.96541 -1.05894,1.13908 -1.97263,1.6201 -2.59507,1.36621 z"
     id="path804" /><path
     style="fill:#80e0df;fill-opacity:1;stroke-width:0.111766"
     d="m 283.99075,227.23303 v -12.04884 l 3.828,-3.68633 c 5.55028,-5.34488 8.02141,-7.69735 8.12465,-7.73452 0.05,-0.018 0.62009,0.30892 1.26692,0.72648 0.64684,0.41756 1.25413,0.80949 1.34954,0.87096 0.15411,0.0993 0.18034,1.32135 0.23505,10.9531 0.0339,5.96274 0.0905,13.56983 0.12593,16.90466 l 0.0643,6.06333 h -2.97068 -2.97067 l 0.004,-5.05743 0.004,-5.05743 0.7297,-0.44706 c 0.84768,-0.51935 1.81387,-1.48475 2.15482,-2.15308 0.32617,-0.63934 0.57229,-1.63604 0.57229,-2.31758 0,-1.23109 -0.56793,-2.68658 -1.41664,-3.63055 -1.05081,-1.16875 -2.16709,-1.67835 -3.67645,-1.67835 -3.04771,0 -5.30118,2.33452 -5.30118,5.49185 0,2.06827 0.89494,3.56421 2.69959,4.51253 l 0.76516,0.40208 v 4.96751 4.96751 h -2.79416 -2.79416 z"
     id="path805" /><path
     style="display:inline;fill:#80e0df;fill-opacity:1;stroke-width:0.111766"
     d="m 289.61091,226.48457 c -0.41251,-0.17625 -0.53731,-0.51041 -0.4457,-1.19339 0.13542,-1.00962 1.31199,-2.74843 2.25346,-3.33029 0.21066,-0.13019 0.70022,-0.28649 1.08791,-0.34732 0.3877,-0.0608 0.84117,-0.20939 1.00773,-0.33011 0.57028,-0.41337 0.67591,-0.24676 0.31677,0.49963 -0.12026,0.24992 -0.25214,0.80647 -0.29307,1.23677 -0.10117,1.06369 -0.26783,1.37159 -1.24459,2.29941 -1.12706,1.0706 -2.00823,1.45338 -2.68251,1.1653 z"
     id="path806" /></g><text
   xml:space="preserve"
   style="font-size:93.3084px;text-align:start;writing-mode:lr-tb;direction:ltr;text-anchor:start;display:inline;fill:#80e0df;fill-opacity:1;stroke-width:3.18097;-inkscape-font-specification:Arial;font-family:Arial;font-weight:normal;font-style:normal;font-stretch:normal;font-variant:normal"
   x="489.19427"
   y="302.35358"
   id="text807-1"
   transform="scale(0.93052407,1.0746632)"
   inkscape:label="text807-1"><tspan
     sodipodi:role="line"
     x="489.19427"
     y="302.35358"
     id="tspan809-6"
     style="font-style:normal;font-variant:normal;font-weight:normal;font-stretch:normal;font-size:93.3084px;font-family:Arial;-inkscape-font-specification:Arial;text-align:center;text-anchor:middle;stroke-width:3.18097">OLIVERITAS</tspan></text></svg>
