<?xml version="1.0" encoding="UTF-8"?>
<!DOCTYPE svg PUBLIC "-//W3C//DTD SVG 1.1//EN" "http://www.w3.org/Graphics/SVG/1.1/DTD/svg11.dtd">
<svg version="1.1" xmlns="http://www.w3.org/2000/svg" xmlns:xlink="http://www.w3.org/1999/xlink" x="0" y="0" width="681" height="750" viewBox="0, 0, 681, 750">
  <g id="Publicdomainvectors.org">
    <g>
      <path d="M474.749,534.522 C463.085,502.985 385.106,329.314 94.574,344.435 L91.982,334.714 C201.715,331.258 409.947,350.483 474.749,534.522 z" fill="#002F2F"/>
      <path d="M475.181,535.602 C475.613,536.682 475.829,537.546 476.045,538.195 C475.829,537.33 475.397,536.466 475.181,535.602 z" fill="#002F2F"/>
      <path d="M476.261,539.058 C476.045,538.842 476.045,538.41 476.045,538.194 C476.261,538.626 476.261,538.842 476.261,539.058 z" fill="#002F2F"/>
      <g>
        <path d="M582.322,512.921 C625.091,579.02 617.747,659.807 565.689,693.505 C513.631,727.202 436.732,701.065 393.962,634.966 C351.192,568.868 358.537,488.08 410.595,454.383 C462.653,420.686 539.552,446.823 582.322,512.921 z" fill="#498C11"/>
        <path d="M582.322,512.921 C625.091,579.02 617.747,659.807 565.689,693.505 C547.544,705.385 526.375,709.705 504.558,707.761 C513.631,705.385 522.055,701.497 530.047,696.313 C582.106,662.615 589.45,581.612 546.68,515.73 C518.815,472.744 476.477,446.607 436.084,442.935 C485.334,429.542 546.032,456.975 582.322,512.705 z" fill="#416B1C"/>
        <path d="M515.791,499.529 C540.416,537.546 540.416,581.612 515.359,597.597 C490.518,613.797 450.34,595.869 425.715,557.851 C401.09,519.834 401.09,475.768 426.147,459.783 C450.988,443.583 491.166,461.511 515.791,499.529 z" fill="#50A708"/>
        <path d="M482.31,505.577 C492.462,521.346 492.462,539.706 482.094,546.403 C471.725,553.099 455.093,545.755 444.724,529.986 C434.572,514.218 434.572,495.857 444.94,489.161 C455.309,482.464 471.941,489.809 482.31,505.577 z" fill="#FFFFFF"/>
      </g>
      <path d="M286.39,367.116 C298.27,396.925 301.726,428.462 298.918,461.079 L301.942,461.079 C305.615,426.086 302.59,392.605 290.926,361.067 L286.39,367.116 z" fill="#002F2F"/>
      <path d="M262.629,358.691 C309.071,331.906 390.074,293.241 446.236,289.785 L449.908,287.409 C391.586,282.44 304.967,333.418 252.261,351.995 L262.629,358.691 z" fill="#002F2F"/>
      <g>
        <path d="M419.235,598.029 C419.235,676.656 368.905,740.594 306.911,740.594 C244.916,740.594 194.586,676.872 194.586,598.029 C194.586,519.402 244.916,455.463 306.911,455.463 C368.905,455.463 419.235,519.186 419.235,598.029 z" fill="#498C11"/>
        <path d="M419.235,598.029 C419.235,676.656 368.905,740.594 306.911,740.594 C285.31,740.594 265.005,732.818 247.94,719.426 C256.797,722.234 266.085,723.746 275.589,723.746 C337.584,723.746 387.914,660.023 387.914,581.18 C387.914,529.986 366.745,485.056 334.776,459.999 C383.378,475.552 419.451,531.498 419.451,598.029 z" fill="#416B1C"/>
        <path d="M317.927,561.739 C317.927,607.101 293.95,643.823 264.141,643.823 C234.548,643.823 210.355,607.101 210.355,561.739 C210.355,516.378 234.332,479.656 264.141,479.656 C293.734,479.656 317.927,516.378 317.927,561.739 z" fill="#50A708"/>
        <path d="M286.39,548.563 C286.39,567.356 276.453,582.692 264.141,582.692 C251.828,582.692 241.892,567.356 241.892,548.563 C241.892,529.77 251.828,514.434 264.141,514.434 C276.453,514.434 286.39,529.77 286.39,548.563 z" fill="#FFFFFF"/>
      </g>
      <g>
        <path d="M582.322,257.167 C653.388,290.865 689.678,363.444 663.109,419.606 C636.54,475.768 557.481,493.913 486.414,460.215 C415.347,426.518 379.058,353.939 405.627,297.777 C432.196,241.615 511.255,223.47 582.322,257.167 z" fill="#498C11"/>
        <path d="M582.322,257.167 C653.388,290.865 689.678,363.444 663.109,419.606 C653.82,439.263 638.268,454.167 618.611,463.887 C624.875,457.191 630.275,449.415 634.38,440.775 C660.949,384.612 624.659,312.033 553.592,278.336 C507.367,256.519 457.685,256.519 421.179,274.664 C456.173,237.295 522.055,228.654 582.106,257.167 z" fill="#416B1C"/>
        <path d="M519.895,274.664 C560.937,294.105 583.834,331.474 571.305,358.259 C558.561,385.044 515.143,391.093 474.101,371.652 C433.06,352.211 410.163,314.842 422.691,288.057 C435.436,261.272 478.853,255.223 519.895,274.664 z" fill="#50A708"/>
        <path d="M494.622,297.345 C511.687,305.337 521.191,320.89 516.007,332.122 C510.823,343.355 492.678,345.731 475.613,337.739 C458.549,329.746 449.044,314.194 454.229,302.961 C459.413,291.729 477.557,289.353 494.622,297.345 z" fill="#FFFFFF"/>
      </g>
      <path d="M433.06,198.197 C313.823,294.969 240.812,313.114 240.812,313.114 C240.812,313.114 268.245,208.349 387.482,111.362 C506.719,14.59 598.306,6.381 598.306,6.381 C598.306,6.381 552.512,101.425 433.276,198.197 z" fill="#345D08"/>
      <path d="M133.24,170.98 C165.641,241.615 151.817,312.249 151.817,312.249 C151.817,312.249 73.621,268.616 41.22,197.981 C8.819,127.346 6.443,78.096 6.443,78.096 C6.443,78.096 100.839,100.345 133.456,170.98 z" fill="#345D08"/>
      <g>
        <path d="M160.889,534.954 C128.704,623.302 42.516,664.992 42.516,664.992 C42.516,664.992 36.468,589.821 68.869,501.473 C101.055,413.126 173.201,358.475 173.201,358.475 C173.201,358.475 193.074,446.823 160.889,535.17 z" fill="#345D08"/>
        <path d="M42.516,666.072 C42.516,666.072 151.6,357.611 188.322,340.331 L188.97,346.163 C188.97,346.163 151.168,384.396 42.516,666.072 z" fill="#002F2F"/>
      </g>
      <path d="M10.331,84.577 C10.331,84.577 174.281,311.169 163.697,342.491 L158.729,339.899 C158.729,339.899 154.193,296.913 10.331,84.577 z" fill="#002F2F"/>
      <path d="M598.09,6.597 C598.09,6.597 354.217,179.836 202.363,342.491 L212.731,342.491 C212.731,342.491 305.615,234.702 597.874,6.597 z" fill="#002F2F"/>
    </g>
  </g>
</svg>
